<?xml version="1.0" encoding="utf-8"?>
<svg xmlns="http://www.w3.org/2000/svg" xmlns:xlink="http://www.w3.org/1999/xlink" width="600" height="400" viewBox="0 0 2400 1600">
<defs>
  <clipPath id="clip460">
    <rect x="0" y="0" width="2400" height="1600"/>
  </clipPath>
</defs>
<path clip-path="url(#clip460)" d="M0 1600 L2400 1600 L2400 0 L0 0  Z" fill="#ffffff" fill-rule="evenodd" fill-opacity="1"/>
<defs>
  <clipPath id="clip461">
    <rect x="480" y="0" width="1681" height="1600"/>
  </clipPath>
</defs>
<path clip-path="url(#clip460)" d="M186.274 1486.45 L2352.76 1486.45 L2352.76 47.2441 L186.274 47.2441  Z" fill="#ffffff" fill-rule="evenodd" fill-opacity="1"/>
<defs>
  <clipPath id="clip462">
    <rect x="186" y="47" width="2167" height="1440"/>
  </clipPath>
</defs>
<polyline clip-path="url(#clip462)" style="stroke:#000000; stroke-linecap:round; stroke-linejoin:round; stroke-width:2; stroke-opacity:0.1; fill:none" points="361.137,1486.45 361.137,47.2441 "/>
<polyline clip-path="url(#clip462)" style="stroke:#000000; stroke-linecap:round; stroke-linejoin:round; stroke-width:2; stroke-opacity:0.1; fill:none" points="928.873,1486.45 928.873,47.2441 "/>
<polyline clip-path="url(#clip462)" style="stroke:#000000; stroke-linecap:round; stroke-linejoin:round; stroke-width:2; stroke-opacity:0.1; fill:none" points="1496.61,1486.45 1496.61,47.2441 "/>
<polyline clip-path="url(#clip462)" style="stroke:#000000; stroke-linecap:round; stroke-linejoin:round; stroke-width:2; stroke-opacity:0.1; fill:none" points="2064.35,1486.45 2064.35,47.2441 "/>
<polyline clip-path="url(#clip460)" style="stroke:#000000; stroke-linecap:round; stroke-linejoin:round; stroke-width:4; stroke-opacity:1; fill:none" points="186.274,1486.45 2352.76,1486.45 "/>
<polyline clip-path="url(#clip460)" style="stroke:#000000; stroke-linecap:round; stroke-linejoin:round; stroke-width:4; stroke-opacity:1; fill:none" points="361.137,1486.45 361.137,1467.55 "/>
<polyline clip-path="url(#clip460)" style="stroke:#000000; stroke-linecap:round; stroke-linejoin:round; stroke-width:4; stroke-opacity:1; fill:none" points="928.873,1486.45 928.873,1467.55 "/>
<polyline clip-path="url(#clip460)" style="stroke:#000000; stroke-linecap:round; stroke-linejoin:round; stroke-width:4; stroke-opacity:1; fill:none" points="1496.61,1486.45 1496.61,1467.55 "/>
<polyline clip-path="url(#clip460)" style="stroke:#000000; stroke-linecap:round; stroke-linejoin:round; stroke-width:4; stroke-opacity:1; fill:none" points="2064.35,1486.45 2064.35,1467.55 "/>
<path clip-path="url(#clip460)" d="M330.778 1532.02 L360.454 1532.02 L360.454 1535.95 L330.778 1535.95 L330.778 1532.02 Z" fill="#000000" fill-rule="nonzero" fill-opacity="1" /><path clip-path="url(#clip460)" d="M370.593 1514.29 L388.949 1514.29 L388.949 1518.22 L374.875 1518.22 L374.875 1526.7 Q375.894 1526.35 376.912 1526.19 Q377.931 1526 378.949 1526 Q384.736 1526 388.116 1529.17 Q391.495 1532.34 391.495 1537.76 Q391.495 1543.34 388.023 1546.44 Q384.551 1549.52 378.232 1549.52 Q376.056 1549.52 373.787 1549.15 Q371.542 1548.78 369.134 1548.04 L369.134 1543.34 Q371.218 1544.47 373.44 1545.03 Q375.662 1545.58 378.139 1545.58 Q382.144 1545.58 384.482 1543.48 Q386.82 1541.37 386.82 1537.76 Q386.82 1534.15 384.482 1532.04 Q382.144 1529.94 378.139 1529.94 Q376.264 1529.94 374.389 1530.35 Q372.537 1530.77 370.593 1531.65 L370.593 1514.29 Z" fill="#000000" fill-rule="nonzero" fill-opacity="1" /><path clip-path="url(#clip460)" d="M928.873 1517.37 Q925.262 1517.37 923.433 1520.93 Q921.628 1524.47 921.628 1531.6 Q921.628 1538.71 923.433 1542.27 Q925.262 1545.82 928.873 1545.82 Q932.507 1545.82 934.313 1542.27 Q936.142 1538.71 936.142 1531.6 Q936.142 1524.47 934.313 1520.93 Q932.507 1517.37 928.873 1517.37 M928.873 1513.66 Q934.683 1513.66 937.739 1518.27 Q940.818 1522.85 940.818 1531.6 Q940.818 1540.33 937.739 1544.94 Q934.683 1549.52 928.873 1549.52 Q923.063 1549.52 919.984 1544.94 Q916.929 1540.33 916.929 1531.6 Q916.929 1522.85 919.984 1518.27 Q923.063 1513.66 928.873 1513.66 Z" fill="#000000" fill-rule="nonzero" fill-opacity="1" /><path clip-path="url(#clip460)" d="M1486.89 1514.29 L1505.24 1514.29 L1505.24 1518.22 L1491.17 1518.22 L1491.17 1526.7 Q1492.19 1526.35 1493.21 1526.19 Q1494.23 1526 1495.24 1526 Q1501.03 1526 1504.41 1529.17 Q1507.79 1532.34 1507.79 1537.76 Q1507.79 1543.34 1504.32 1546.44 Q1500.85 1549.52 1494.53 1549.52 Q1492.35 1549.52 1490.08 1549.15 Q1487.84 1548.78 1485.43 1548.04 L1485.43 1543.34 Q1487.51 1544.47 1489.73 1545.03 Q1491.96 1545.58 1494.43 1545.58 Q1498.44 1545.58 1500.78 1543.48 Q1503.11 1541.37 1503.11 1537.76 Q1503.11 1534.15 1500.78 1532.04 Q1498.44 1529.94 1494.43 1529.94 Q1492.56 1529.94 1490.68 1530.35 Q1488.83 1530.77 1486.89 1531.65 L1486.89 1514.29 Z" fill="#000000" fill-rule="nonzero" fill-opacity="1" /><path clip-path="url(#clip460)" d="M2039.03 1544.91 L2046.67 1544.91 L2046.67 1518.55 L2038.36 1520.21 L2038.36 1515.95 L2046.63 1514.29 L2051.3 1514.29 L2051.3 1544.91 L2058.94 1544.91 L2058.94 1548.85 L2039.03 1548.85 L2039.03 1544.91 Z" fill="#000000" fill-rule="nonzero" fill-opacity="1" /><path clip-path="url(#clip460)" d="M2078.39 1517.37 Q2074.77 1517.37 2072.95 1520.93 Q2071.14 1524.47 2071.14 1531.6 Q2071.14 1538.71 2072.95 1542.27 Q2074.77 1545.82 2078.39 1545.82 Q2082.02 1545.82 2083.82 1542.27 Q2085.65 1538.71 2085.65 1531.6 Q2085.65 1524.47 2083.82 1520.93 Q2082.02 1517.37 2078.39 1517.37 M2078.39 1513.66 Q2084.2 1513.66 2087.25 1518.27 Q2090.33 1522.85 2090.33 1531.6 Q2090.33 1540.33 2087.25 1544.94 Q2084.2 1549.52 2078.39 1549.52 Q2072.57 1549.52 2069.5 1544.94 Q2066.44 1540.33 2066.44 1531.6 Q2066.44 1522.85 2069.5 1518.27 Q2072.57 1513.66 2078.39 1513.66 Z" fill="#000000" fill-rule="nonzero" fill-opacity="1" /><polyline clip-path="url(#clip462)" style="stroke:#000000; stroke-linecap:round; stroke-linejoin:round; stroke-width:2; stroke-opacity:0.1; fill:none" points="186.274,1445.72 2352.76,1445.72 "/>
<polyline clip-path="url(#clip462)" style="stroke:#000000; stroke-linecap:round; stroke-linejoin:round; stroke-width:2; stroke-opacity:0.1; fill:none" points="186.274,1167.33 2352.76,1167.33 "/>
<polyline clip-path="url(#clip462)" style="stroke:#000000; stroke-linecap:round; stroke-linejoin:round; stroke-width:2; stroke-opacity:0.1; fill:none" points="186.274,888.937 2352.76,888.937 "/>
<polyline clip-path="url(#clip462)" style="stroke:#000000; stroke-linecap:round; stroke-linejoin:round; stroke-width:2; stroke-opacity:0.1; fill:none" points="186.274,610.547 2352.76,610.547 "/>
<polyline clip-path="url(#clip462)" style="stroke:#000000; stroke-linecap:round; stroke-linejoin:round; stroke-width:2; stroke-opacity:0.1; fill:none" points="186.274,332.158 2352.76,332.158 "/>
<polyline clip-path="url(#clip462)" style="stroke:#000000; stroke-linecap:round; stroke-linejoin:round; stroke-width:2; stroke-opacity:0.1; fill:none" points="186.274,53.7683 2352.76,53.7683 "/>
<polyline clip-path="url(#clip460)" style="stroke:#000000; stroke-linecap:round; stroke-linejoin:round; stroke-width:4; stroke-opacity:1; fill:none" points="186.274,1486.45 186.274,47.2441 "/>
<polyline clip-path="url(#clip460)" style="stroke:#000000; stroke-linecap:round; stroke-linejoin:round; stroke-width:4; stroke-opacity:1; fill:none" points="186.274,1445.72 205.172,1445.72 "/>
<polyline clip-path="url(#clip460)" style="stroke:#000000; stroke-linecap:round; stroke-linejoin:round; stroke-width:4; stroke-opacity:1; fill:none" points="186.274,1167.33 205.172,1167.33 "/>
<polyline clip-path="url(#clip460)" style="stroke:#000000; stroke-linecap:round; stroke-linejoin:round; stroke-width:4; stroke-opacity:1; fill:none" points="186.274,888.937 205.172,888.937 "/>
<polyline clip-path="url(#clip460)" style="stroke:#000000; stroke-linecap:round; stroke-linejoin:round; stroke-width:4; stroke-opacity:1; fill:none" points="186.274,610.547 205.172,610.547 "/>
<polyline clip-path="url(#clip460)" style="stroke:#000000; stroke-linecap:round; stroke-linejoin:round; stroke-width:4; stroke-opacity:1; fill:none" points="186.274,332.158 205.172,332.158 "/>
<polyline clip-path="url(#clip460)" style="stroke:#000000; stroke-linecap:round; stroke-linejoin:round; stroke-width:4; stroke-opacity:1; fill:none" points="186.274,53.7683 205.172,53.7683 "/>
<path clip-path="url(#clip460)" d="M62.9365 1431.51 Q59.3254 1431.51 57.4967 1435.08 Q55.6912 1438.62 55.6912 1445.75 Q55.6912 1452.86 57.4967 1456.42 Q59.3254 1459.96 62.9365 1459.96 Q66.5707 1459.96 68.3763 1456.42 Q70.205 1452.86 70.205 1445.75 Q70.205 1438.62 68.3763 1435.08 Q66.5707 1431.51 62.9365 1431.51 M62.9365 1427.81 Q68.7467 1427.81 71.8022 1432.42 Q74.8809 1437 74.8809 1445.75 Q74.8809 1454.48 71.8022 1459.08 Q68.7467 1463.67 62.9365 1463.67 Q57.1264 1463.67 54.0477 1459.08 Q50.9921 1454.48 50.9921 1445.75 Q50.9921 1437 54.0477 1432.42 Q57.1264 1427.81 62.9365 1427.81 Z" fill="#000000" fill-rule="nonzero" fill-opacity="1" /><path clip-path="url(#clip460)" d="M83.0984 1457.12 L87.9827 1457.12 L87.9827 1463 L83.0984 1463 L83.0984 1457.12 Z" fill="#000000" fill-rule="nonzero" fill-opacity="1" /><path clip-path="url(#clip460)" d="M108.168 1431.51 Q104.557 1431.51 102.728 1435.08 Q100.922 1438.62 100.922 1445.75 Q100.922 1452.86 102.728 1456.42 Q104.557 1459.96 108.168 1459.96 Q111.802 1459.96 113.608 1456.42 Q115.436 1452.86 115.436 1445.75 Q115.436 1438.62 113.608 1435.08 Q111.802 1431.51 108.168 1431.51 M108.168 1427.81 Q113.978 1427.81 117.033 1432.42 Q120.112 1437 120.112 1445.75 Q120.112 1454.48 117.033 1459.08 Q113.978 1463.67 108.168 1463.67 Q102.358 1463.67 99.2789 1459.08 Q96.2234 1454.48 96.2234 1445.75 Q96.2234 1437 99.2789 1432.42 Q102.358 1427.81 108.168 1427.81 Z" fill="#000000" fill-rule="nonzero" fill-opacity="1" /><path clip-path="url(#clip460)" d="M138.33 1431.51 Q134.719 1431.51 132.89 1435.08 Q131.084 1438.62 131.084 1445.75 Q131.084 1452.86 132.89 1456.42 Q134.719 1459.96 138.33 1459.96 Q141.964 1459.96 143.769 1456.42 Q145.598 1452.86 145.598 1445.75 Q145.598 1438.62 143.769 1435.08 Q141.964 1431.51 138.33 1431.51 M138.33 1427.81 Q144.14 1427.81 147.195 1432.42 Q150.274 1437 150.274 1445.75 Q150.274 1454.48 147.195 1459.08 Q144.14 1463.67 138.33 1463.67 Q132.519 1463.67 129.441 1459.08 Q126.385 1454.48 126.385 1445.75 Q126.385 1437 129.441 1432.42 Q132.519 1427.81 138.33 1427.81 Z" fill="#000000" fill-rule="nonzero" fill-opacity="1" /><path clip-path="url(#clip460)" d="M63.9319 1153.12 Q60.3208 1153.12 58.4921 1156.69 Q56.6865 1160.23 56.6865 1167.36 Q56.6865 1174.47 58.4921 1178.03 Q60.3208 1181.57 63.9319 1181.57 Q67.5661 1181.57 69.3717 1178.03 Q71.2004 1174.47 71.2004 1167.36 Q71.2004 1160.23 69.3717 1156.69 Q67.5661 1153.12 63.9319 1153.12 M63.9319 1149.42 Q69.742 1149.42 72.7976 1154.03 Q75.8763 1158.61 75.8763 1167.36 Q75.8763 1176.09 72.7976 1180.69 Q69.742 1185.28 63.9319 1185.28 Q58.1217 1185.28 55.043 1180.69 Q51.9875 1176.09 51.9875 1167.36 Q51.9875 1158.61 55.043 1154.03 Q58.1217 1149.42 63.9319 1149.42 Z" fill="#000000" fill-rule="nonzero" fill-opacity="1" /><path clip-path="url(#clip460)" d="M84.0938 1178.73 L88.978 1178.73 L88.978 1184.61 L84.0938 1184.61 L84.0938 1178.73 Z" fill="#000000" fill-rule="nonzero" fill-opacity="1" /><path clip-path="url(#clip460)" d="M109.163 1153.12 Q105.552 1153.12 103.723 1156.69 Q101.918 1160.23 101.918 1167.36 Q101.918 1174.47 103.723 1178.03 Q105.552 1181.57 109.163 1181.57 Q112.797 1181.57 114.603 1178.03 Q116.432 1174.47 116.432 1167.36 Q116.432 1160.23 114.603 1156.69 Q112.797 1153.12 109.163 1153.12 M109.163 1149.42 Q114.973 1149.42 118.029 1154.03 Q121.107 1158.61 121.107 1167.36 Q121.107 1176.09 118.029 1180.69 Q114.973 1185.28 109.163 1185.28 Q103.353 1185.28 100.274 1180.69 Q97.2187 1176.09 97.2187 1167.36 Q97.2187 1158.61 100.274 1154.03 Q103.353 1149.42 109.163 1149.42 Z" fill="#000000" fill-rule="nonzero" fill-opacity="1" /><path clip-path="url(#clip460)" d="M129.371 1150.05 L147.728 1150.05 L147.728 1153.98 L133.654 1153.98 L133.654 1162.45 Q134.672 1162.11 135.691 1161.94 Q136.709 1161.76 137.728 1161.76 Q143.515 1161.76 146.894 1164.93 Q150.274 1168.1 150.274 1173.52 Q150.274 1179.1 146.802 1182.2 Q143.33 1185.28 137.01 1185.28 Q134.834 1185.28 132.566 1184.91 Q130.32 1184.54 127.913 1183.8 L127.913 1179.1 Q129.996 1180.23 132.219 1180.79 Q134.441 1181.34 136.918 1181.34 Q140.922 1181.34 143.26 1179.24 Q145.598 1177.13 145.598 1173.52 Q145.598 1169.91 143.26 1167.8 Q140.922 1165.69 136.918 1165.69 Q135.043 1165.69 133.168 1166.11 Q131.316 1166.53 129.371 1167.41 L129.371 1150.05 Z" fill="#000000" fill-rule="nonzero" fill-opacity="1" /><path clip-path="url(#clip460)" d="M62.9365 874.735 Q59.3254 874.735 57.4967 878.3 Q55.6912 881.842 55.6912 888.971 Q55.6912 896.078 57.4967 899.643 Q59.3254 903.184 62.9365 903.184 Q66.5707 903.184 68.3763 899.643 Q70.205 896.078 70.205 888.971 Q70.205 881.842 68.3763 878.3 Q66.5707 874.735 62.9365 874.735 M62.9365 871.032 Q68.7467 871.032 71.8022 875.638 Q74.8809 880.221 74.8809 888.971 Q74.8809 897.698 71.8022 902.305 Q68.7467 906.888 62.9365 906.888 Q57.1264 906.888 54.0477 902.305 Q50.9921 897.698 50.9921 888.971 Q50.9921 880.221 54.0477 875.638 Q57.1264 871.032 62.9365 871.032 Z" fill="#000000" fill-rule="nonzero" fill-opacity="1" /><path clip-path="url(#clip460)" d="M83.0984 900.337 L87.9827 900.337 L87.9827 906.217 L83.0984 906.217 L83.0984 900.337 Z" fill="#000000" fill-rule="nonzero" fill-opacity="1" /><path clip-path="url(#clip460)" d="M98.978 902.282 L106.617 902.282 L106.617 875.916 L98.3067 877.583 L98.3067 873.323 L106.571 871.657 L111.246 871.657 L111.246 902.282 L118.885 902.282 L118.885 906.217 L98.978 906.217 L98.978 902.282 Z" fill="#000000" fill-rule="nonzero" fill-opacity="1" /><path clip-path="url(#clip460)" d="M138.33 874.735 Q134.719 874.735 132.89 878.3 Q131.084 881.842 131.084 888.971 Q131.084 896.078 132.89 899.643 Q134.719 903.184 138.33 903.184 Q141.964 903.184 143.769 899.643 Q145.598 896.078 145.598 888.971 Q145.598 881.842 143.769 878.3 Q141.964 874.735 138.33 874.735 M138.33 871.032 Q144.14 871.032 147.195 875.638 Q150.274 880.221 150.274 888.971 Q150.274 897.698 147.195 902.305 Q144.14 906.888 138.33 906.888 Q132.519 906.888 129.441 902.305 Q126.385 897.698 126.385 888.971 Q126.385 880.221 129.441 875.638 Q132.519 871.032 138.33 871.032 Z" fill="#000000" fill-rule="nonzero" fill-opacity="1" /><path clip-path="url(#clip460)" d="M63.9319 596.346 Q60.3208 596.346 58.4921 599.911 Q56.6865 603.452 56.6865 610.582 Q56.6865 617.688 58.4921 621.253 Q60.3208 624.795 63.9319 624.795 Q67.5661 624.795 69.3717 621.253 Q71.2004 617.688 71.2004 610.582 Q71.2004 603.452 69.3717 599.911 Q67.5661 596.346 63.9319 596.346 M63.9319 592.642 Q69.742 592.642 72.7976 597.249 Q75.8763 601.832 75.8763 610.582 Q75.8763 619.309 72.7976 623.915 Q69.742 628.499 63.9319 628.499 Q58.1217 628.499 55.043 623.915 Q51.9875 619.309 51.9875 610.582 Q51.9875 601.832 55.043 597.249 Q58.1217 592.642 63.9319 592.642 Z" fill="#000000" fill-rule="nonzero" fill-opacity="1" /><path clip-path="url(#clip460)" d="M84.0938 621.948 L88.978 621.948 L88.978 627.827 L84.0938 627.827 L84.0938 621.948 Z" fill="#000000" fill-rule="nonzero" fill-opacity="1" /><path clip-path="url(#clip460)" d="M99.9733 623.892 L107.612 623.892 L107.612 597.526 L99.3021 599.193 L99.3021 594.934 L107.566 593.267 L112.242 593.267 L112.242 623.892 L119.881 623.892 L119.881 627.827 L99.9733 627.827 L99.9733 623.892 Z" fill="#000000" fill-rule="nonzero" fill-opacity="1" /><path clip-path="url(#clip460)" d="M129.371 593.267 L147.728 593.267 L147.728 597.202 L133.654 597.202 L133.654 605.675 Q134.672 605.327 135.691 605.165 Q136.709 604.98 137.728 604.98 Q143.515 604.98 146.894 608.151 Q150.274 611.323 150.274 616.739 Q150.274 622.318 146.802 625.42 Q143.33 628.499 137.01 628.499 Q134.834 628.499 132.566 628.128 Q130.32 627.758 127.913 627.017 L127.913 622.318 Q129.996 623.452 132.219 624.008 Q134.441 624.563 136.918 624.563 Q140.922 624.563 143.26 622.457 Q145.598 620.35 145.598 616.739 Q145.598 613.128 143.26 611.022 Q140.922 608.915 136.918 608.915 Q135.043 608.915 133.168 609.332 Q131.316 609.749 129.371 610.628 L129.371 593.267 Z" fill="#000000" fill-rule="nonzero" fill-opacity="1" /><path clip-path="url(#clip460)" d="M62.9365 317.956 Q59.3254 317.956 57.4967 321.521 Q55.6912 325.063 55.6912 332.192 Q55.6912 339.299 57.4967 342.864 Q59.3254 346.405 62.9365 346.405 Q66.5707 346.405 68.3763 342.864 Q70.205 339.299 70.205 332.192 Q70.205 325.063 68.3763 321.521 Q66.5707 317.956 62.9365 317.956 M62.9365 314.253 Q68.7467 314.253 71.8022 318.859 Q74.8809 323.443 74.8809 332.192 Q74.8809 340.919 71.8022 345.526 Q68.7467 350.109 62.9365 350.109 Q57.1264 350.109 54.0477 345.526 Q50.9921 340.919 50.9921 332.192 Q50.9921 323.443 54.0477 318.859 Q57.1264 314.253 62.9365 314.253 Z" fill="#000000" fill-rule="nonzero" fill-opacity="1" /><path clip-path="url(#clip460)" d="M83.0984 343.558 L87.9827 343.558 L87.9827 349.438 L83.0984 349.438 L83.0984 343.558 Z" fill="#000000" fill-rule="nonzero" fill-opacity="1" /><path clip-path="url(#clip460)" d="M102.196 345.503 L118.515 345.503 L118.515 349.438 L96.5706 349.438 L96.5706 345.503 Q99.2326 342.748 103.816 338.118 Q108.422 333.466 109.603 332.123 Q111.848 329.6 112.728 327.864 Q113.631 326.105 113.631 324.415 Q113.631 321.66 111.686 319.924 Q109.765 318.188 106.663 318.188 Q104.464 318.188 102.01 318.952 Q99.5798 319.716 96.8021 321.267 L96.8021 316.544 Q99.6261 315.41 102.08 314.831 Q104.534 314.253 106.571 314.253 Q111.941 314.253 115.135 316.938 Q118.33 319.623 118.33 324.114 Q118.33 326.243 117.52 328.165 Q116.733 330.063 114.626 332.655 Q114.047 333.327 110.946 336.544 Q107.844 339.739 102.196 345.503 Z" fill="#000000" fill-rule="nonzero" fill-opacity="1" /><path clip-path="url(#clip460)" d="M138.33 317.956 Q134.719 317.956 132.89 321.521 Q131.084 325.063 131.084 332.192 Q131.084 339.299 132.89 342.864 Q134.719 346.405 138.33 346.405 Q141.964 346.405 143.769 342.864 Q145.598 339.299 145.598 332.192 Q145.598 325.063 143.769 321.521 Q141.964 317.956 138.33 317.956 M138.33 314.253 Q144.14 314.253 147.195 318.859 Q150.274 323.443 150.274 332.192 Q150.274 340.919 147.195 345.526 Q144.14 350.109 138.33 350.109 Q132.519 350.109 129.441 345.526 Q126.385 340.919 126.385 332.192 Q126.385 323.443 129.441 318.859 Q132.519 314.253 138.33 314.253 Z" fill="#000000" fill-rule="nonzero" fill-opacity="1" /><path clip-path="url(#clip460)" d="M63.9319 39.567 Q60.3208 39.567 58.4921 43.1318 Q56.6865 46.6734 56.6865 53.803 Q56.6865 60.9094 58.4921 64.4742 Q60.3208 68.0159 63.9319 68.0159 Q67.5661 68.0159 69.3717 64.4742 Q71.2004 60.9094 71.2004 53.803 Q71.2004 46.6734 69.3717 43.1318 Q67.5661 39.567 63.9319 39.567 M63.9319 35.8633 Q69.742 35.8633 72.7976 40.4697 Q75.8763 45.0531 75.8763 53.803 Q75.8763 62.5298 72.7976 67.1363 Q69.742 71.7196 63.9319 71.7196 Q58.1217 71.7196 55.043 67.1363 Q51.9875 62.5298 51.9875 53.803 Q51.9875 45.0531 55.043 40.4697 Q58.1217 35.8633 63.9319 35.8633 Z" fill="#000000" fill-rule="nonzero" fill-opacity="1" /><path clip-path="url(#clip460)" d="M84.0938 65.1687 L88.978 65.1687 L88.978 71.0483 L84.0938 71.0483 L84.0938 65.1687 Z" fill="#000000" fill-rule="nonzero" fill-opacity="1" /><path clip-path="url(#clip460)" d="M103.191 67.1131 L119.51 67.1131 L119.51 71.0483 L97.566 71.0483 L97.566 67.1131 Q100.228 64.3585 104.811 59.7289 Q109.418 55.0761 110.598 53.7336 Q112.844 51.2104 113.723 49.4743 Q114.626 47.7151 114.626 46.0253 Q114.626 43.2707 112.682 41.5346 Q110.76 39.7985 107.658 39.7985 Q105.459 39.7985 103.006 40.5623 Q100.575 41.3262 97.7974 42.8771 L97.7974 38.1549 Q100.621 37.0207 103.075 36.442 Q105.529 35.8633 107.566 35.8633 Q112.936 35.8633 116.131 38.5485 Q119.325 41.2336 119.325 45.7243 Q119.325 47.854 118.515 49.7752 Q117.728 51.6734 115.621 54.266 Q115.043 54.9373 111.941 58.1548 Q108.839 61.3493 103.191 67.1131 Z" fill="#000000" fill-rule="nonzero" fill-opacity="1" /><path clip-path="url(#clip460)" d="M129.371 36.4883 L147.728 36.4883 L147.728 40.4234 L133.654 40.4234 L133.654 48.8956 Q134.672 48.5484 135.691 48.3864 Q136.709 48.2012 137.728 48.2012 Q143.515 48.2012 146.894 51.3725 Q150.274 54.5437 150.274 59.9604 Q150.274 65.5391 146.802 68.6409 Q143.33 71.7196 137.01 71.7196 Q134.834 71.7196 132.566 71.3492 Q130.32 70.9788 127.913 70.2381 L127.913 65.5391 Q129.996 66.6733 132.219 67.2289 Q134.441 67.7844 136.918 67.7844 Q140.922 67.7844 143.26 65.6779 Q145.598 63.5715 145.598 59.9604 Q145.598 56.3493 143.26 54.2428 Q140.922 52.1363 136.918 52.1363 Q135.043 52.1363 133.168 52.553 Q131.316 52.9697 129.371 53.8493 L129.371 36.4883 Z" fill="#000000" fill-rule="nonzero" fill-opacity="1" /><path clip-path="url(#clip462)" d="M247.59 1445.72 L258.944 1445.72 L270.299 1445.72 L281.654 1445.71 L293.008 1445.71 L304.363 1445.71 L315.718 1445.71 L327.073 1445.71 L338.427 1445.71 L349.782 1445.71 L361.137 1445.71 L372.492 1445.71 L383.846 1445.7 L395.201 1445.7 L406.556 1445.69 L417.91 1445.69 L429.265 1445.68 L440.62 1445.67 L451.975 1445.65 L463.329 1445.63 L474.684 1445.6 L486.039 1445.57 L497.394 1445.53 L508.748 1445.48 L520.103 1445.41 L531.458 1445.32 L542.812 1445.21 L554.167 1445.07 L565.522 1444.9 L576.877 1444.69 L588.231 1444.43 L599.586 1444.11 L610.941 1443.71 L622.296 1443.22 L633.65 1442.62 L645.005 1441.9 L656.36 1441.03 L667.714 1439.98 L679.069 1438.71 L690.424 1437.2 L701.779 1435.41 L713.133 1433.28 L724.488 1430.76 L735.843 1427.81 L747.198 1424.34 L758.552 1420.31 L769.907 1415.62 L781.262 1410.19 L792.616 1403.95 L803.971 1396.78 L815.326 1388.6 L826.681 1379.3 L838.035 1368.76 L849.39 1356.88 L860.745 1343.55 L872.1 1328.65 L883.454 1312.06 L894.809 1293.69 L906.164 1273.44 L917.518 1251.2 L928.873 1226.9 L940.228 1200.47 L951.583 1171.87 L962.937 1141.05 L974.292 1108.01 L985.647 1072.77 L997.002 1035.37 L1008.36 995.876 L1019.71 954.402 L1031.07 911.081 L1042.42 866.082 L1053.78 819.611 L1065.13 771.905 L1076.48 723.235 L1087.84 673.902 L1099.19 624.238 L1110.55 574.599 L1121.9 525.362 L1133.26 476.925 L1144.61 429.693 L1155.97 384.084 L1167.32 340.514 L1178.68 299.393 L1190.03 261.121 L1201.39 226.08 L1212.74 194.628 L1224.1 167.092 L1235.45 143.762 L1246.81 124.89 L1258.16 110.68 L1269.51 101.287 L1280.87 96.8148 L1292.22 97.3125 L1303.58 102.775 L1314.93 113.141 L1326.29 128.298 L1337.64 148.079 L1349 172.271 L1360.35 200.615 L1371.71 232.812 L1383.06 268.529 L1394.42 307.401 L1405.77 349.045 L1417.13 393.056 L1428.48 439.023 L1439.84 486.529 L1451.19 535.159 L1462.55 584.507 L1473.9 634.181 L1485.25 683.806 L1496.61 733.032 L1507.96 781.532 L1519.32 829.012 L1530.67 875.207 L1542.03 919.885 L1553.38 962.85 L1564.74 1003.94 L1576.09 1043.02 L1587.45 1079.99 L1598.8 1114.79 L1610.16 1147.39 L1621.51 1177.76 L1632.87 1205.93 L1644.22 1231.93 L1655.58 1255.81 L1666.93 1277.64 L1678.29 1297.52 L1689.64 1315.52 L1700.99 1331.76 L1712.35 1346.34 L1723.7 1359.37 L1735.06 1370.97 L1746.41 1381.25 L1757.77 1390.32 L1769.12 1398.29 L1780.48 1405.27 L1791.83 1411.34 L1803.19 1416.61 L1814.54 1421.16 L1825.9 1425.08 L1837.25 1428.44 L1848.61 1431.3 L1859.96 1433.73 L1871.32 1435.79 L1882.67 1437.53 L1894.02 1438.99 L1905.38 1440.2 L1916.73 1441.22 L1928.09 1442.06 L1939.44 1442.75 L1950.8 1443.32 L1962.15 1443.79 L1973.51 1444.18 L1984.86 1444.49 L1996.22 1444.74 L2007.57 1444.94 L2018.93 1445.1 L2030.28 1445.23 L2041.64 1445.34 L2052.99 1445.42 L2064.35 1445.49 L2075.7 1445.54 L2087.06 1445.58 L2098.41 1445.61 L2109.76 1445.64 L2121.12 1445.65 L2132.47 1445.67 L2143.83 1445.68 L2155.18 1445.69 L2166.54 1445.7 L2177.89 1445.7 L2189.25 1445.7 L2200.6 1445.71 L2211.96 1445.71 L2223.31 1445.71 L2234.67 1445.71 L2246.02 1445.71 L2257.38 1445.71 L2268.73 1445.71 L2280.09 1445.71 L2291.44 1445.71 L2291.44 1445.72 L2280.09 1445.72 L2268.73 1445.72 L2257.38 1445.72 L2246.02 1445.72 L2234.67 1445.72 L2223.31 1445.72 L2211.96 1445.72 L2200.6 1445.72 L2189.25 1445.72 L2177.89 1445.72 L2166.54 1445.72 L2155.18 1445.72 L2143.83 1445.72 L2132.47 1445.72 L2121.12 1445.72 L2109.76 1445.72 L2098.41 1445.72 L2087.06 1445.72 L2075.7 1445.72 L2064.35 1445.72 L2052.99 1445.72 L2041.64 1445.72 L2030.28 1445.72 L2018.93 1445.72 L2007.57 1445.72 L1996.22 1445.72 L1984.86 1445.72 L1973.51 1445.72 L1962.15 1445.72 L1950.8 1445.72 L1939.44 1445.72 L1928.09 1445.72 L1916.73 1445.72 L1905.38 1445.72 L1894.02 1445.72 L1882.67 1445.72 L1871.32 1445.72 L1859.96 1445.72 L1848.61 1445.72 L1837.25 1445.72 L1825.9 1445.72 L1814.54 1445.72 L1803.19 1445.72 L1791.83 1445.72 L1780.48 1445.72 L1769.12 1445.72 L1757.77 1445.72 L1746.41 1445.72 L1735.06 1445.72 L1723.7 1445.72 L1712.35 1445.72 L1700.99 1445.72 L1689.64 1445.72 L1678.29 1445.72 L1666.93 1445.72 L1655.58 1445.72 L1644.22 1445.72 L1632.87 1445.72 L1621.51 1445.72 L1610.16 1445.72 L1598.8 1445.72 L1587.45 1445.72 L1576.09 1445.72 L1564.74 1445.72 L1553.38 1445.72 L1542.03 1445.72 L1530.67 1445.72 L1519.32 1445.72 L1507.96 1445.72 L1496.61 1445.72 L1485.25 1445.72 L1473.9 1445.72 L1462.55 1445.72 L1451.19 1445.72 L1439.84 1445.72 L1428.48 1445.72 L1417.13 1445.72 L1405.77 1445.72 L1394.42 1445.72 L1383.06 1445.72 L1371.71 1445.72 L1360.35 1445.72 L1349 1445.72 L1337.64 1445.72 L1326.29 1445.72 L1314.93 1445.72 L1303.58 1445.72 L1292.22 1445.72 L1280.87 1445.72 L1269.51 1445.72 L1258.16 1445.72 L1246.81 1445.72 L1235.45 1445.72 L1224.1 1445.72 L1212.74 1445.72 L1201.39 1445.72 L1190.03 1445.72 L1178.68 1445.72 L1167.32 1445.72 L1155.97 1445.72 L1144.61 1445.72 L1133.26 1445.72 L1121.9 1445.72 L1110.55 1445.72 L1099.19 1445.72 L1087.84 1445.72 L1076.48 1445.72 L1065.13 1445.72 L1053.78 1445.72 L1042.42 1445.72 L1031.07 1445.72 L1019.71 1445.72 L1008.36 1445.72 L997.002 1445.72 L985.647 1445.72 L974.292 1445.72 L962.937 1445.72 L951.583 1445.72 L940.228 1445.72 L928.873 1445.72 L917.518 1445.72 L906.164 1445.72 L894.809 1445.72 L883.454 1445.72 L872.1 1445.72 L860.745 1445.72 L849.39 1445.72 L838.035 1445.72 L826.681 1445.72 L815.326 1445.72 L803.971 1445.72 L792.616 1445.72 L781.262 1445.72 L769.907 1445.72 L758.552 1445.72 L747.198 1445.72 L735.843 1445.72 L724.488 1445.72 L713.133 1445.72 L701.779 1445.72 L690.424 1445.72 L679.069 1445.72 L667.714 1445.72 L656.36 1445.72 L645.005 1445.72 L633.65 1445.72 L622.296 1445.72 L610.941 1445.72 L599.586 1445.72 L588.231 1445.72 L576.877 1445.72 L565.522 1445.72 L554.167 1445.72 L542.812 1445.72 L531.458 1445.72 L520.103 1445.72 L508.748 1445.72 L497.394 1445.72 L486.039 1445.72 L474.684 1445.72 L463.329 1445.72 L451.975 1445.72 L440.62 1445.72 L429.265 1445.72 L417.91 1445.72 L406.556 1445.72 L395.201 1445.72 L383.846 1445.72 L372.492 1445.72 L361.137 1445.72 L349.782 1445.72 L338.427 1445.72 L327.073 1445.72 L315.718 1445.72 L304.363 1445.72 L293.008 1445.72 L281.654 1445.72 L270.299 1445.72 L258.944 1445.72 L247.59 1445.72  Z" fill="#009af9" fill-rule="evenodd" fill-opacity="0.2"/>
<polyline clip-path="url(#clip462)" style="stroke:#009af9; stroke-linecap:round; stroke-linejoin:round; stroke-width:4; stroke-opacity:1; fill:none" points="247.59,1445.72 258.944,1445.72 270.299,1445.72 281.654,1445.71 293.008,1445.71 304.363,1445.71 315.718,1445.71 327.073,1445.71 338.427,1445.71 349.782,1445.71 361.137,1445.71 372.492,1445.71 383.846,1445.7 395.201,1445.7 406.556,1445.69 417.91,1445.69 429.265,1445.68 440.62,1445.67 451.975,1445.65 463.329,1445.63 474.684,1445.6 486.039,1445.57 497.394,1445.53 508.748,1445.48 520.103,1445.41 531.458,1445.32 542.812,1445.21 554.167,1445.07 565.522,1444.9 576.877,1444.69 588.231,1444.43 599.586,1444.11 610.941,1443.71 622.296,1443.22 633.65,1442.62 645.005,1441.9 656.36,1441.03 667.714,1439.98 679.069,1438.71 690.424,1437.2 701.779,1435.41 713.133,1433.28 724.488,1430.76 735.843,1427.81 747.198,1424.34 758.552,1420.31 769.907,1415.62 781.262,1410.19 792.616,1403.95 803.971,1396.78 815.326,1388.6 826.681,1379.3 838.035,1368.76 849.39,1356.88 860.745,1343.55 872.1,1328.65 883.454,1312.06 894.809,1293.69 906.164,1273.44 917.518,1251.2 928.873,1226.9 940.228,1200.47 951.583,1171.87 962.937,1141.05 974.292,1108.01 985.647,1072.77 997.002,1035.37 1008.36,995.876 1019.71,954.402 1031.07,911.081 1042.42,866.082 1053.78,819.611 1065.13,771.905 1076.48,723.235 1087.84,673.902 1099.19,624.238 1110.55,574.599 1121.9,525.362 1133.26,476.925 1144.61,429.693 1155.97,384.084 1167.32,340.514 1178.68,299.393 1190.03,261.121 1201.39,226.08 1212.74,194.628 1224.1,167.092 1235.45,143.762 1246.81,124.89 1258.16,110.68 1269.51,101.287 1280.87,96.8148 1292.22,97.3125 1303.58,102.775 1314.93,113.141 1326.29,128.298 1337.64,148.079 1349,172.271 1360.35,200.615 1371.71,232.812 1383.06,268.529 1394.42,307.401 1405.77,349.045 1417.13,393.056 1428.48,439.023 1439.84,486.529 1451.19,535.159 1462.55,584.507 1473.9,634.181 1485.25,683.806 1496.61,733.032 1507.96,781.532 1519.32,829.012 1530.67,875.207 1542.03,919.885 1553.38,962.85 1564.74,1003.94 1576.09,1043.02 1587.45,1079.99 1598.8,1114.79 1610.16,1147.39 1621.51,1177.76 1632.87,1205.93 1644.22,1231.93 1655.58,1255.81 1666.93,1277.64 1678.29,1297.52 1689.64,1315.52 1700.99,1331.76 1712.35,1346.34 1723.7,1359.37 1735.06,1370.97 1746.41,1381.25 1757.77,1390.32 1769.12,1398.29 1780.48,1405.27 1791.83,1411.34 1803.19,1416.61 1814.54,1421.16 1825.9,1425.08 1837.25,1428.44 1848.61,1431.3 1859.96,1433.73 1871.32,1435.79 1882.67,1437.53 1894.02,1438.99 1905.38,1440.2 1916.73,1441.22 1928.09,1442.06 1939.44,1442.75 1950.8,1443.32 1962.15,1443.79 1973.51,1444.18 1984.86,1444.49 1996.22,1444.74 2007.57,1444.94 2018.93,1445.1 2030.28,1445.23 2041.64,1445.34 2052.99,1445.42 2064.35,1445.49 2075.7,1445.54 2087.06,1445.58 2098.41,1445.61 2109.76,1445.64 2121.12,1445.65 2132.47,1445.67 2143.83,1445.68 2155.18,1445.69 2166.54,1445.7 2177.89,1445.7 2189.25,1445.7 2200.6,1445.71 2211.96,1445.71 2223.31,1445.71 2234.67,1445.71 2246.02,1445.71 2257.38,1445.71 2268.73,1445.71 2280.09,1445.71 2291.44,1445.71 "/>
<path clip-path="url(#clip462)" d="M247.59 1445.72 L258.944 1445.72 L270.299 1445.72 L281.654 1445.72 L293.008 1445.71 L304.363 1445.71 L315.718 1445.71 L327.073 1445.71 L338.427 1445.71 L349.782 1445.71 L361.137 1445.71 L372.492 1445.71 L383.846 1445.71 L395.201 1445.7 L406.556 1445.7 L417.91 1445.69 L429.265 1445.68 L440.62 1445.67 L451.975 1445.66 L463.329 1445.64 L474.684 1445.62 L486.039 1445.59 L497.394 1445.55 L508.748 1445.5 L520.103 1445.44 L531.458 1445.36 L542.812 1445.27 L554.167 1445.14 L565.522 1444.99 L576.877 1444.8 L588.231 1444.56 L599.586 1444.26 L610.941 1443.89 L622.296 1443.44 L633.65 1442.89 L645.005 1442.22 L656.36 1441.41 L667.714 1440.43 L679.069 1439.24 L690.424 1437.82 L701.779 1436.13 L713.133 1434.12 L724.488 1431.73 L735.843 1428.92 L747.198 1425.63 L758.552 1421.77 L769.907 1417.28 L781.262 1412.07 L792.616 1406.05 L803.971 1399.14 L815.326 1391.22 L826.681 1382.2 L838.035 1371.96 L849.39 1360.39 L860.745 1347.37 L872.1 1332.79 L883.454 1316.53 L894.809 1298.48 L906.164 1278.53 L917.518 1256.6 L928.873 1232.58 L940.228 1206.4 L951.583 1178.02 L962.937 1147.39 L974.292 1114.49 L985.647 1079.34 L997.002 1041.97 L1008.36 1002.45 L1019.71 960.877 L1031.07 917.385 L1042.42 872.141 L1053.78 825.346 L1065.13 777.237 L1076.48 728.087 L1087.84 678.198 L1099.19 627.905 L1110.55 577.568 L1121.9 527.574 L1133.26 478.324 L1144.61 430.237 L1155.97 383.739 L1167.32 339.257 L1178.68 297.214 L1190.03 258.024 L1201.39 222.081 L1212.74 189.755 L1224.1 161.387 L1235.45 137.28 L1246.81 117.696 L1258.16 102.85 L1269.51 92.9068 L1280.87 87.9763 L1292.22 88.114 L1303.58 93.3185 L1314.93 103.531 L1326.29 118.639 L1337.64 138.474 L1349 162.819 L1360.35 191.41 L1371.71 223.941 L1383.06 260.07 L1394.42 299.426 L1405.77 341.612 L1417.13 386.214 L1428.48 432.81 L1439.84 480.97 L1451.19 530.271 L1462.55 580.294 L1473.9 630.638 L1485.25 680.918 L1496.61 730.775 L1507.96 779.877 L1519.32 827.921 L1530.67 874.637 L1542.03 919.792 L1553.38 963.184 L1564.74 1004.65 L1576.09 1044.05 L1587.45 1081.3 L1598.8 1116.33 L1610.16 1149.11 L1621.51 1179.62 L1632.87 1207.88 L1644.22 1233.93 L1655.58 1257.84 L1666.93 1279.67 L1678.29 1299.51 L1689.64 1317.46 L1700.99 1333.62 L1712.35 1348.12 L1723.7 1361.05 L1735.06 1372.55 L1746.41 1382.72 L1757.77 1391.68 L1769.12 1399.54 L1780.48 1406.4 L1791.83 1412.37 L1803.19 1417.54 L1814.54 1421.99 L1825.9 1425.82 L1837.25 1429.09 L1848.61 1431.87 L1859.96 1434.24 L1871.32 1436.23 L1882.67 1437.91 L1894.02 1439.31 L1905.38 1440.48 L1916.73 1441.46 L1928.09 1442.26 L1939.44 1442.92 L1950.8 1443.47 L1962.15 1443.91 L1973.51 1444.28 L1984.86 1444.57 L1996.22 1444.81 L2007.57 1445 L2018.93 1445.15 L2030.28 1445.27 L2041.64 1445.37 L2052.99 1445.45 L2064.35 1445.51 L2075.7 1445.55 L2087.06 1445.59 L2098.41 1445.62 L2109.76 1445.64 L2121.12 1445.66 L2132.47 1445.67 L2143.83 1445.68 L2155.18 1445.69 L2166.54 1445.7 L2177.89 1445.7 L2189.25 1445.71 L2200.6 1445.71 L2211.96 1445.71 L2223.31 1445.71 L2234.67 1445.71 L2246.02 1445.71 L2257.38 1445.71 L2268.73 1445.71 L2280.09 1445.71 L2291.44 1445.72 L2291.44 1445.72 L2280.09 1445.72 L2268.73 1445.72 L2257.38 1445.72 L2246.02 1445.72 L2234.67 1445.72 L2223.31 1445.72 L2211.96 1445.72 L2200.6 1445.72 L2189.25 1445.72 L2177.89 1445.72 L2166.54 1445.72 L2155.18 1445.72 L2143.83 1445.72 L2132.47 1445.72 L2121.12 1445.72 L2109.76 1445.72 L2098.41 1445.72 L2087.06 1445.72 L2075.7 1445.72 L2064.35 1445.72 L2052.99 1445.72 L2041.64 1445.72 L2030.28 1445.72 L2018.93 1445.72 L2007.57 1445.72 L1996.22 1445.72 L1984.86 1445.72 L1973.51 1445.72 L1962.15 1445.72 L1950.8 1445.72 L1939.44 1445.72 L1928.09 1445.72 L1916.73 1445.72 L1905.38 1445.72 L1894.02 1445.72 L1882.67 1445.72 L1871.32 1445.72 L1859.96 1445.72 L1848.61 1445.72 L1837.25 1445.72 L1825.9 1445.72 L1814.54 1445.72 L1803.19 1445.72 L1791.83 1445.72 L1780.48 1445.72 L1769.12 1445.72 L1757.77 1445.72 L1746.41 1445.72 L1735.06 1445.72 L1723.7 1445.72 L1712.35 1445.72 L1700.99 1445.72 L1689.64 1445.72 L1678.29 1445.72 L1666.93 1445.72 L1655.58 1445.72 L1644.22 1445.72 L1632.87 1445.72 L1621.51 1445.72 L1610.16 1445.72 L1598.8 1445.72 L1587.45 1445.72 L1576.09 1445.72 L1564.74 1445.72 L1553.38 1445.72 L1542.03 1445.72 L1530.67 1445.72 L1519.32 1445.72 L1507.96 1445.72 L1496.61 1445.72 L1485.25 1445.72 L1473.9 1445.72 L1462.55 1445.72 L1451.19 1445.72 L1439.84 1445.72 L1428.48 1445.72 L1417.13 1445.72 L1405.77 1445.72 L1394.42 1445.72 L1383.06 1445.72 L1371.71 1445.72 L1360.35 1445.72 L1349 1445.72 L1337.64 1445.72 L1326.29 1445.72 L1314.93 1445.72 L1303.58 1445.72 L1292.22 1445.72 L1280.87 1445.72 L1269.51 1445.72 L1258.16 1445.72 L1246.81 1445.72 L1235.45 1445.72 L1224.1 1445.72 L1212.74 1445.72 L1201.39 1445.72 L1190.03 1445.72 L1178.68 1445.72 L1167.32 1445.72 L1155.97 1445.72 L1144.61 1445.72 L1133.26 1445.72 L1121.9 1445.72 L1110.55 1445.72 L1099.19 1445.72 L1087.84 1445.72 L1076.48 1445.72 L1065.13 1445.72 L1053.78 1445.72 L1042.42 1445.72 L1031.07 1445.72 L1019.71 1445.72 L1008.36 1445.72 L997.002 1445.72 L985.647 1445.72 L974.292 1445.72 L962.937 1445.72 L951.583 1445.72 L940.228 1445.72 L928.873 1445.72 L917.518 1445.72 L906.164 1445.72 L894.809 1445.72 L883.454 1445.72 L872.1 1445.72 L860.745 1445.72 L849.39 1445.72 L838.035 1445.72 L826.681 1445.72 L815.326 1445.72 L803.971 1445.72 L792.616 1445.72 L781.262 1445.72 L769.907 1445.72 L758.552 1445.72 L747.198 1445.72 L735.843 1445.72 L724.488 1445.72 L713.133 1445.72 L701.779 1445.72 L690.424 1445.72 L679.069 1445.72 L667.714 1445.72 L656.36 1445.72 L645.005 1445.72 L633.65 1445.72 L622.296 1445.72 L610.941 1445.72 L599.586 1445.72 L588.231 1445.72 L576.877 1445.72 L565.522 1445.72 L554.167 1445.72 L542.812 1445.72 L531.458 1445.72 L520.103 1445.72 L508.748 1445.72 L497.394 1445.72 L486.039 1445.72 L474.684 1445.72 L463.329 1445.72 L451.975 1445.72 L440.62 1445.72 L429.265 1445.72 L417.91 1445.72 L406.556 1445.72 L395.201 1445.72 L383.846 1445.72 L372.492 1445.72 L361.137 1445.72 L349.782 1445.72 L338.427 1445.72 L327.073 1445.72 L315.718 1445.72 L304.363 1445.72 L293.008 1445.72 L281.654 1445.72 L270.299 1445.72 L258.944 1445.72 L247.59 1445.72  Z" fill="#e26f46" fill-rule="evenodd" fill-opacity="0.2"/>
<polyline clip-path="url(#clip462)" style="stroke:#e26f46; stroke-linecap:round; stroke-linejoin:round; stroke-width:4; stroke-opacity:1; fill:none" points="247.59,1445.72 258.944,1445.72 270.299,1445.72 281.654,1445.72 293.008,1445.71 304.363,1445.71 315.718,1445.71 327.073,1445.71 338.427,1445.71 349.782,1445.71 361.137,1445.71 372.492,1445.71 383.846,1445.71 395.201,1445.7 406.556,1445.7 417.91,1445.69 429.265,1445.68 440.62,1445.67 451.975,1445.66 463.329,1445.64 474.684,1445.62 486.039,1445.59 497.394,1445.55 508.748,1445.5 520.103,1445.44 531.458,1445.36 542.812,1445.27 554.167,1445.14 565.522,1444.99 576.877,1444.8 588.231,1444.56 599.586,1444.26 610.941,1443.89 622.296,1443.44 633.65,1442.89 645.005,1442.22 656.36,1441.41 667.714,1440.43 679.069,1439.24 690.424,1437.82 701.779,1436.13 713.133,1434.12 724.488,1431.73 735.843,1428.92 747.198,1425.63 758.552,1421.77 769.907,1417.28 781.262,1412.07 792.616,1406.05 803.971,1399.14 815.326,1391.22 826.681,1382.2 838.035,1371.96 849.39,1360.39 860.745,1347.37 872.1,1332.79 883.454,1316.53 894.809,1298.48 906.164,1278.53 917.518,1256.6 928.873,1232.58 940.228,1206.4 951.583,1178.02 962.937,1147.39 974.292,1114.49 985.647,1079.34 997.002,1041.97 1008.36,1002.45 1019.71,960.877 1031.07,917.385 1042.42,872.141 1053.78,825.346 1065.13,777.237 1076.48,728.087 1087.84,678.198 1099.19,627.905 1110.55,577.568 1121.9,527.574 1133.26,478.324 1144.61,430.237 1155.97,383.739 1167.32,339.257 1178.68,297.214 1190.03,258.024 1201.39,222.081 1212.74,189.755 1224.1,161.387 1235.45,137.28 1246.81,117.696 1258.16,102.85 1269.51,92.9068 1280.87,87.9763 1292.22,88.114 1303.58,93.3185 1314.93,103.531 1326.29,118.639 1337.64,138.474 1349,162.819 1360.35,191.41 1371.71,223.941 1383.06,260.07 1394.42,299.426 1405.77,341.612 1417.13,386.214 1428.48,432.81 1439.84,480.97 1451.19,530.271 1462.55,580.294 1473.9,630.638 1485.25,680.918 1496.61,730.775 1507.96,779.877 1519.32,827.921 1530.67,874.637 1542.03,919.792 1553.38,963.184 1564.74,1004.65 1576.09,1044.05 1587.45,1081.3 1598.8,1116.33 1610.16,1149.11 1621.51,1179.62 1632.87,1207.88 1644.22,1233.93 1655.58,1257.84 1666.93,1279.67 1678.29,1299.51 1689.64,1317.46 1700.99,1333.62 1712.35,1348.12 1723.7,1361.05 1735.06,1372.55 1746.41,1382.72 1757.77,1391.68 1769.12,1399.54 1780.48,1406.4 1791.83,1412.37 1803.19,1417.54 1814.54,1421.99 1825.9,1425.82 1837.25,1429.09 1848.61,1431.87 1859.96,1434.24 1871.32,1436.23 1882.67,1437.91 1894.02,1439.31 1905.38,1440.48 1916.73,1441.46 1928.09,1442.26 1939.44,1442.92 1950.8,1443.47 1962.15,1443.91 1973.51,1444.28 1984.86,1444.57 1996.22,1444.81 2007.57,1445 2018.93,1445.15 2030.28,1445.27 2041.64,1445.37 2052.99,1445.45 2064.35,1445.51 2075.7,1445.55 2087.06,1445.59 2098.41,1445.62 2109.76,1445.64 2121.12,1445.66 2132.47,1445.67 2143.83,1445.68 2155.18,1445.69 2166.54,1445.7 2177.89,1445.7 2189.25,1445.71 2200.6,1445.71 2211.96,1445.71 2223.31,1445.71 2234.67,1445.71 2246.02,1445.71 2257.38,1445.71 2268.73,1445.71 2280.09,1445.71 2291.44,1445.72 "/>
<path clip-path="url(#clip460)" d="M1580.01 250.738 L2280.54 250.738 L2280.54 95.2176 L1580.01 95.2176  Z" fill="#ffffff" fill-rule="evenodd" fill-opacity="1"/>
<polyline clip-path="url(#clip460)" style="stroke:#000000; stroke-linecap:round; stroke-linejoin:round; stroke-width:4; stroke-opacity:1; fill:none" points="1580.01,250.738 2280.54,250.738 2280.54,95.2176 1580.01,95.2176 1580.01,250.738 "/>
<path clip-path="url(#clip460)" d="M1604.08 167.794 L1748.51 167.794 L1748.51 126.322 L1604.08 126.322 L1604.08 167.794  Z" fill="#009af9" fill-rule="evenodd" fill-opacity="0.2"/>
<polyline clip-path="url(#clip460)" style="stroke:#009af9; stroke-linecap:round; stroke-linejoin:round; stroke-width:4; stroke-opacity:1; fill:none" points="1604.08,126.322 1748.51,126.322 "/>
<path clip-path="url(#clip460)" d="M1787.77 142.393 Q1787.05 141.977 1786.19 141.791 Q1785.36 141.583 1784.34 141.583 Q1780.73 141.583 1778.79 143.944 Q1776.86 146.282 1776.86 150.68 L1776.86 164.338 L1772.58 164.338 L1772.58 138.412 L1776.86 138.412 L1776.86 142.44 Q1778.21 140.078 1780.36 138.944 Q1782.51 137.787 1785.59 137.787 Q1786.03 137.787 1786.56 137.856 Q1787.1 137.903 1787.74 138.018 L1787.77 142.393 Z" fill="#000000" fill-rule="nonzero" fill-opacity="1" /><path clip-path="url(#clip460)" d="M1813.37 150.31 L1813.37 152.393 L1793.79 152.393 Q1794.06 156.791 1796.42 159.106 Q1798.81 161.398 1803.04 161.398 Q1805.5 161.398 1807.79 160.796 Q1810.1 160.194 1812.37 158.99 L1812.37 163.018 Q1810.08 163.99 1807.67 164.5 Q1805.27 165.009 1802.79 165.009 Q1796.59 165.009 1792.95 161.398 Q1789.34 157.787 1789.34 151.629 Q1789.34 145.264 1792.77 141.537 Q1796.22 137.787 1802.05 137.787 Q1807.28 137.787 1810.31 141.166 Q1813.37 144.523 1813.37 150.31 M1809.11 149.06 Q1809.06 145.565 1807.14 143.481 Q1805.24 141.398 1802.1 141.398 Q1798.53 141.398 1796.38 143.412 Q1794.25 145.426 1793.92 149.083 L1809.11 149.06 Z" fill="#000000" fill-rule="nonzero" fill-opacity="1" /><path clip-path="url(#clip460)" d="M1832.14 151.305 Q1826.98 151.305 1824.99 152.486 Q1823 153.666 1823 156.514 Q1823 158.782 1824.48 160.125 Q1825.98 161.444 1828.55 161.444 Q1832.1 161.444 1834.22 158.944 Q1836.38 156.421 1836.38 152.254 L1836.38 151.305 L1832.14 151.305 M1840.64 149.546 L1840.64 164.338 L1836.38 164.338 L1836.38 160.402 Q1834.92 162.763 1832.74 163.898 Q1830.57 165.009 1827.42 165.009 Q1823.44 165.009 1821.08 162.787 Q1818.74 160.541 1818.74 156.791 Q1818.74 152.416 1821.66 150.194 Q1824.6 147.972 1830.41 147.972 L1836.38 147.972 L1836.38 147.555 Q1836.38 144.615 1834.43 143.018 Q1832.51 141.398 1829.02 141.398 Q1826.79 141.398 1824.69 141.93 Q1822.58 142.463 1820.64 143.527 L1820.64 139.592 Q1822.97 138.69 1825.17 138.25 Q1827.37 137.787 1829.46 137.787 Q1835.08 137.787 1837.86 140.703 Q1840.64 143.62 1840.64 149.546 Z" fill="#000000" fill-rule="nonzero" fill-opacity="1" /><path clip-path="url(#clip460)" d="M1849.41 128.319 L1853.67 128.319 L1853.67 164.338 L1849.41 164.338 L1849.41 128.319 Z" fill="#000000" fill-rule="nonzero" fill-opacity="1" /><path clip-path="url(#clip460)" d="M1894.71 142.347 L1894.71 128.319 L1898.97 128.319 L1898.97 164.338 L1894.71 164.338 L1894.71 160.449 Q1893.37 162.763 1891.31 163.898 Q1889.27 165.009 1886.4 165.009 Q1881.7 165.009 1878.74 161.259 Q1875.8 157.509 1875.8 151.398 Q1875.8 145.287 1878.74 141.537 Q1881.7 137.787 1886.4 137.787 Q1889.27 137.787 1891.31 138.921 Q1893.37 140.032 1894.71 142.347 M1880.2 151.398 Q1880.2 156.097 1882.12 158.782 Q1884.06 161.444 1887.44 161.444 Q1890.82 161.444 1892.77 158.782 Q1894.71 156.097 1894.71 151.398 Q1894.71 146.699 1892.77 144.037 Q1890.82 141.352 1887.44 141.352 Q1884.06 141.352 1882.12 144.037 Q1880.2 146.699 1880.2 151.398 Z" fill="#000000" fill-rule="nonzero" fill-opacity="1" /><path clip-path="url(#clip460)" d="M1907.74 138.412 L1912 138.412 L1912 164.338 L1907.74 164.338 L1907.74 138.412 M1907.74 128.319 L1912 128.319 L1912 133.713 L1907.74 133.713 L1907.74 128.319 Z" fill="#000000" fill-rule="nonzero" fill-opacity="1" /><path clip-path="url(#clip460)" d="M1937.44 139.176 L1937.44 143.203 Q1935.64 142.277 1933.69 141.815 Q1931.75 141.352 1929.66 141.352 Q1926.49 141.352 1924.9 142.324 Q1923.32 143.296 1923.32 145.24 Q1923.32 146.722 1924.46 147.578 Q1925.59 148.412 1929.02 149.176 L1930.47 149.5 Q1935.01 150.472 1936.91 152.254 Q1938.83 154.014 1938.83 157.185 Q1938.83 160.796 1935.96 162.902 Q1933.11 165.009 1928.11 165.009 Q1926.03 165.009 1923.76 164.592 Q1921.52 164.199 1919.02 163.388 L1919.02 158.99 Q1921.38 160.217 1923.67 160.842 Q1925.96 161.444 1928.21 161.444 Q1931.21 161.444 1932.84 160.426 Q1934.46 159.384 1934.46 157.509 Q1934.46 155.773 1933.28 154.847 Q1932.12 153.921 1928.16 153.064 L1926.68 152.717 Q1922.72 151.884 1920.96 150.171 Q1919.2 148.435 1919.2 145.426 Q1919.2 141.768 1921.79 139.778 Q1924.39 137.787 1929.15 137.787 Q1931.52 137.787 1933.6 138.134 Q1935.68 138.481 1937.44 139.176 Z" fill="#000000" fill-rule="nonzero" fill-opacity="1" /><path clip-path="url(#clip460)" d="M1949.83 131.051 L1949.83 138.412 L1958.6 138.412 L1958.6 141.722 L1949.83 141.722 L1949.83 155.796 Q1949.83 158.967 1950.68 159.87 Q1951.56 160.773 1954.22 160.773 L1958.6 160.773 L1958.6 164.338 L1954.22 164.338 Q1949.29 164.338 1947.42 162.509 Q1945.54 160.657 1945.54 155.796 L1945.54 141.722 L1942.42 141.722 L1942.42 138.412 L1945.54 138.412 L1945.54 131.051 L1949.83 131.051 Z" fill="#000000" fill-rule="nonzero" fill-opacity="1" /><path clip-path="url(#clip460)" d="M1979.22 142.393 Q1978.51 141.977 1977.65 141.791 Q1976.82 141.583 1975.8 141.583 Q1972.19 141.583 1970.24 143.944 Q1968.32 146.282 1968.32 150.68 L1968.32 164.338 L1964.04 164.338 L1964.04 138.412 L1968.32 138.412 L1968.32 142.44 Q1969.66 140.078 1971.82 138.944 Q1973.97 137.787 1977.05 137.787 Q1977.49 137.787 1978.02 137.856 Q1978.55 137.903 1979.2 138.018 L1979.22 142.393 Z" fill="#000000" fill-rule="nonzero" fill-opacity="1" /><path clip-path="url(#clip460)" d="M1983.69 138.412 L1987.95 138.412 L1987.95 164.338 L1983.69 164.338 L1983.69 138.412 M1983.69 128.319 L1987.95 128.319 L1987.95 133.713 L1983.69 133.713 L1983.69 128.319 Z" fill="#000000" fill-rule="nonzero" fill-opacity="1" /><path clip-path="url(#clip460)" d="M2015.47 151.398 Q2015.47 146.699 2013.53 144.037 Q2011.61 141.352 2008.23 141.352 Q2004.85 141.352 2002.9 144.037 Q2000.98 146.699 2000.98 151.398 Q2000.98 156.097 2002.9 158.782 Q2004.85 161.444 2008.23 161.444 Q2011.61 161.444 2013.53 158.782 Q2015.47 156.097 2015.47 151.398 M2000.98 142.347 Q2002.33 140.032 2004.36 138.921 Q2006.42 137.787 2009.27 137.787 Q2013.99 137.787 2016.93 141.537 Q2019.9 145.287 2019.9 151.398 Q2019.9 157.509 2016.93 161.259 Q2013.99 165.009 2009.27 165.009 Q2006.42 165.009 2004.36 163.898 Q2002.33 162.763 2000.98 160.449 L2000.98 164.338 L1996.7 164.338 L1996.7 128.319 L2000.98 128.319 L2000.98 142.347 Z" fill="#000000" fill-rule="nonzero" fill-opacity="1" /><path clip-path="url(#clip460)" d="M2026.52 154.106 L2026.52 138.412 L2030.77 138.412 L2030.77 153.944 Q2030.77 157.625 2032.21 159.476 Q2033.64 161.305 2036.52 161.305 Q2039.96 161.305 2041.96 159.106 Q2043.97 156.907 2043.97 153.111 L2043.97 138.412 L2048.23 138.412 L2048.23 164.338 L2043.97 164.338 L2043.97 160.356 Q2042.42 162.717 2040.36 163.875 Q2038.32 165.009 2035.61 165.009 Q2031.14 165.009 2028.83 162.231 Q2026.52 159.453 2026.52 154.106 M2037.23 137.787 L2037.23 137.787 Z" fill="#000000" fill-rule="nonzero" fill-opacity="1" /><path clip-path="url(#clip460)" d="M2061.21 131.051 L2061.21 138.412 L2069.99 138.412 L2069.99 141.722 L2061.21 141.722 L2061.21 155.796 Q2061.21 158.967 2062.07 159.87 Q2062.95 160.773 2065.61 160.773 L2069.99 160.773 L2069.99 164.338 L2065.61 164.338 Q2060.68 164.338 2058.81 162.509 Q2056.93 160.657 2056.93 155.796 L2056.93 141.722 L2053.81 141.722 L2053.81 138.412 L2056.93 138.412 L2056.93 131.051 L2061.21 131.051 Z" fill="#000000" fill-rule="nonzero" fill-opacity="1" /><path clip-path="url(#clip460)" d="M2075.59 138.412 L2079.85 138.412 L2079.85 164.338 L2075.59 164.338 L2075.59 138.412 M2075.59 128.319 L2079.85 128.319 L2079.85 133.713 L2075.59 133.713 L2075.59 128.319 Z" fill="#000000" fill-rule="nonzero" fill-opacity="1" /><path clip-path="url(#clip460)" d="M2098.81 141.398 Q2095.38 141.398 2093.39 144.083 Q2091.4 146.745 2091.4 151.398 Q2091.4 156.051 2093.37 158.736 Q2095.36 161.398 2098.81 161.398 Q2102.21 161.398 2104.2 158.713 Q2106.19 156.027 2106.19 151.398 Q2106.19 146.791 2104.2 144.106 Q2102.21 141.398 2098.81 141.398 M2098.81 137.787 Q2104.36 137.787 2107.53 141.398 Q2110.7 145.009 2110.7 151.398 Q2110.7 157.764 2107.53 161.398 Q2104.36 165.009 2098.81 165.009 Q2093.23 165.009 2090.06 161.398 Q2086.91 157.764 2086.91 151.398 Q2086.91 145.009 2090.06 141.398 Q2093.23 137.787 2098.81 137.787 Z" fill="#000000" fill-rule="nonzero" fill-opacity="1" /><path clip-path="url(#clip460)" d="M2139.32 148.689 L2139.32 164.338 L2135.06 164.338 L2135.06 148.828 Q2135.06 145.148 2133.62 143.319 Q2132.19 141.49 2129.32 141.49 Q2125.87 141.49 2123.88 143.69 Q2121.89 145.889 2121.89 149.685 L2121.89 164.338 L2117.6 164.338 L2117.6 138.412 L2121.89 138.412 L2121.89 142.44 Q2123.41 140.102 2125.47 138.944 Q2127.56 137.787 2130.26 137.787 Q2134.73 137.787 2137.02 140.565 Q2139.32 143.319 2139.32 148.689 Z" fill="#000000" fill-rule="nonzero" fill-opacity="1" /><path clip-path="url(#clip460)" d="M1604.08 219.634 L1748.51 219.634 L1748.51 178.162 L1604.08 178.162 L1604.08 219.634  Z" fill="#e26f46" fill-rule="evenodd" fill-opacity="0.2"/>
<polyline clip-path="url(#clip460)" style="stroke:#e26f46; stroke-linecap:round; stroke-linejoin:round; stroke-width:4; stroke-opacity:1; fill:none" points="1604.08,178.162 1748.51,178.162 "/>
<path clip-path="url(#clip460)" d="M1796.61 202.15 L1796.61 204.233 L1777.03 204.233 Q1777.3 208.631 1779.66 210.946 Q1782.05 213.238 1786.29 213.238 Q1788.74 213.238 1791.03 212.636 Q1793.35 212.034 1795.61 210.83 L1795.61 214.858 Q1793.32 215.83 1790.91 216.34 Q1788.51 216.849 1786.03 216.849 Q1779.83 216.849 1776.19 213.238 Q1772.58 209.627 1772.58 203.469 Q1772.58 197.104 1776.01 193.377 Q1779.46 189.627 1785.29 189.627 Q1790.52 189.627 1793.55 193.006 Q1796.61 196.363 1796.61 202.15 M1792.35 200.9 Q1792.3 197.405 1790.38 195.321 Q1788.48 193.238 1785.34 193.238 Q1781.77 193.238 1779.62 195.252 Q1777.49 197.266 1777.16 200.923 L1792.35 200.9 Z" fill="#000000" fill-rule="nonzero" fill-opacity="1" /><path clip-path="url(#clip460)" d="M1820.13 191.016 L1820.13 195.043 Q1818.32 194.117 1816.38 193.655 Q1814.43 193.192 1812.35 193.192 Q1809.18 193.192 1807.58 194.164 Q1806.01 195.136 1806.01 197.08 Q1806.01 198.562 1807.14 199.418 Q1808.28 200.252 1811.7 201.016 L1813.16 201.34 Q1817.7 202.312 1819.6 204.094 Q1821.52 205.854 1821.52 209.025 Q1821.52 212.636 1818.65 214.742 Q1815.8 216.849 1810.8 216.849 Q1808.72 216.849 1806.45 216.432 Q1804.2 216.039 1801.7 215.228 L1801.7 210.83 Q1804.06 212.057 1806.35 212.682 Q1808.65 213.284 1810.89 213.284 Q1813.9 213.284 1815.52 212.266 Q1817.14 211.224 1817.14 209.349 Q1817.14 207.613 1815.96 206.687 Q1814.8 205.761 1810.85 204.904 L1809.36 204.557 Q1805.41 203.724 1803.65 202.011 Q1801.89 200.275 1801.89 197.266 Q1801.89 193.608 1804.48 191.618 Q1807.07 189.627 1811.84 189.627 Q1814.2 189.627 1816.28 189.974 Q1818.37 190.321 1820.13 191.016 Z" fill="#000000" fill-rule="nonzero" fill-opacity="1" /><path clip-path="url(#clip460)" d="M1832.51 182.891 L1832.51 190.252 L1841.28 190.252 L1841.28 193.562 L1832.51 193.562 L1832.51 207.636 Q1832.51 210.807 1833.37 211.71 Q1834.25 212.613 1836.91 212.613 L1841.28 212.613 L1841.28 216.178 L1836.91 216.178 Q1831.98 216.178 1830.1 214.349 Q1828.23 212.497 1828.23 207.636 L1828.23 193.562 L1825.1 193.562 L1825.1 190.252 L1828.23 190.252 L1828.23 182.891 L1832.51 182.891 Z" fill="#000000" fill-rule="nonzero" fill-opacity="1" /><path clip-path="url(#clip460)" d="M1846.89 190.252 L1851.15 190.252 L1851.15 216.178 L1846.89 216.178 L1846.89 190.252 M1846.89 180.159 L1851.15 180.159 L1851.15 185.553 L1846.89 185.553 L1846.89 180.159 Z" fill="#000000" fill-rule="nonzero" fill-opacity="1" /><path clip-path="url(#clip460)" d="M1880.24 195.229 Q1881.84 192.358 1884.06 190.993 Q1886.28 189.627 1889.29 189.627 Q1893.34 189.627 1895.54 192.474 Q1897.74 195.298 1897.74 200.529 L1897.74 216.178 L1893.46 216.178 L1893.46 200.668 Q1893.46 196.942 1892.14 195.136 Q1890.82 193.33 1888.11 193.33 Q1884.8 193.33 1882.88 195.53 Q1880.96 197.729 1880.96 201.525 L1880.96 216.178 L1876.68 216.178 L1876.68 200.668 Q1876.68 196.918 1875.36 195.136 Q1874.04 193.33 1871.28 193.33 Q1868.02 193.33 1866.1 195.553 Q1864.18 197.752 1864.18 201.525 L1864.18 216.178 L1859.9 216.178 L1859.9 190.252 L1864.18 190.252 L1864.18 194.28 Q1865.64 191.895 1867.67 190.761 Q1869.71 189.627 1872.51 189.627 Q1875.34 189.627 1877.3 191.062 Q1879.29 192.497 1880.24 195.229 Z" fill="#000000" fill-rule="nonzero" fill-opacity="1" /><path clip-path="url(#clip460)" d="M1918.02 203.145 Q1912.86 203.145 1910.87 204.326 Q1908.88 205.506 1908.88 208.354 Q1908.88 210.622 1910.36 211.965 Q1911.86 213.284 1914.43 213.284 Q1917.97 213.284 1920.1 210.784 Q1922.26 208.261 1922.26 204.094 L1922.26 203.145 L1918.02 203.145 M1926.52 201.386 L1926.52 216.178 L1922.26 216.178 L1922.26 212.242 Q1920.8 214.603 1918.62 215.738 Q1916.45 216.849 1913.3 216.849 Q1909.32 216.849 1906.96 214.627 Q1904.62 212.381 1904.62 208.631 Q1904.62 204.256 1907.53 202.034 Q1910.47 199.812 1916.28 199.812 L1922.26 199.812 L1922.26 199.395 Q1922.26 196.455 1920.31 194.858 Q1918.39 193.238 1914.9 193.238 Q1912.67 193.238 1910.57 193.77 Q1908.46 194.303 1906.52 195.367 L1906.52 191.432 Q1908.85 190.53 1911.05 190.09 Q1913.25 189.627 1915.34 189.627 Q1920.96 189.627 1923.74 192.543 Q1926.52 195.46 1926.52 201.386 Z" fill="#000000" fill-rule="nonzero" fill-opacity="1" /><path clip-path="url(#clip460)" d="M1939.5 182.891 L1939.5 190.252 L1948.28 190.252 L1948.28 193.562 L1939.5 193.562 L1939.5 207.636 Q1939.5 210.807 1940.36 211.71 Q1941.24 212.613 1943.9 212.613 L1948.28 212.613 L1948.28 216.178 L1943.9 216.178 Q1938.97 216.178 1937.09 214.349 Q1935.22 212.497 1935.22 207.636 L1935.22 193.562 L1932.09 193.562 L1932.09 190.252 L1935.22 190.252 L1935.22 182.891 L1939.5 182.891 Z" fill="#000000" fill-rule="nonzero" fill-opacity="1" /><path clip-path="url(#clip460)" d="M1976.05 202.15 L1976.05 204.233 L1956.47 204.233 Q1956.75 208.631 1959.11 210.946 Q1961.49 213.238 1965.73 213.238 Q1968.18 213.238 1970.47 212.636 Q1972.79 212.034 1975.06 210.83 L1975.06 214.858 Q1972.77 215.83 1970.36 216.34 Q1967.95 216.849 1965.47 216.849 Q1959.27 216.849 1955.64 213.238 Q1952.03 209.627 1952.03 203.469 Q1952.03 197.104 1955.45 193.377 Q1958.9 189.627 1964.73 189.627 Q1969.96 189.627 1973 193.006 Q1976.05 196.363 1976.05 202.15 M1971.79 200.9 Q1971.75 197.405 1969.83 195.321 Q1967.93 193.238 1964.78 193.238 Q1961.21 193.238 1959.06 195.252 Q1956.93 197.266 1956.61 200.923 L1971.79 200.9 Z" fill="#000000" fill-rule="nonzero" fill-opacity="1" /><path clip-path="url(#clip460)" d="M2000.1 194.187 L2000.1 180.159 L2004.36 180.159 L2004.36 216.178 L2000.1 216.178 L2000.1 212.289 Q1998.76 214.603 1996.7 215.738 Q1994.66 216.849 1991.79 216.849 Q1987.09 216.849 1984.13 213.099 Q1981.19 209.349 1981.19 203.238 Q1981.19 197.127 1984.13 193.377 Q1987.09 189.627 1991.79 189.627 Q1994.66 189.627 1996.7 190.761 Q1998.76 191.872 2000.1 194.187 M1985.59 203.238 Q1985.59 207.937 1987.51 210.622 Q1989.46 213.284 1992.83 213.284 Q1996.21 213.284 1998.16 210.622 Q2000.1 207.937 2000.1 203.238 Q2000.1 198.539 1998.16 195.877 Q1996.21 193.192 1992.83 193.192 Q1989.46 193.192 1987.51 195.877 Q1985.59 198.539 1985.59 203.238 Z" fill="#000000" fill-rule="nonzero" fill-opacity="1" /><path clip-path="url(#clip460)" d="M2032.33 212.289 L2032.33 226.039 L2028.04 226.039 L2028.04 190.252 L2032.33 190.252 L2032.33 194.187 Q2033.67 191.872 2035.71 190.761 Q2037.77 189.627 2040.61 189.627 Q2045.33 189.627 2048.27 193.377 Q2051.24 197.127 2051.24 203.238 Q2051.24 209.349 2048.27 213.099 Q2045.33 216.849 2040.61 216.849 Q2037.77 216.849 2035.71 215.738 Q2033.67 214.603 2032.33 212.289 M2046.82 203.238 Q2046.82 198.539 2044.87 195.877 Q2042.95 193.192 2039.57 193.192 Q2036.19 193.192 2034.25 195.877 Q2032.33 198.539 2032.33 203.238 Q2032.33 207.937 2034.25 210.622 Q2036.19 213.284 2039.57 213.284 Q2042.95 213.284 2044.87 210.622 Q2046.82 207.937 2046.82 203.238 Z" fill="#000000" fill-rule="nonzero" fill-opacity="1" /><path clip-path="url(#clip460)" d="M2073.32 194.233 Q2072.6 193.817 2071.75 193.631 Q2070.91 193.423 2069.89 193.423 Q2066.28 193.423 2064.34 195.784 Q2062.42 198.122 2062.42 202.52 L2062.42 216.178 L2058.14 216.178 L2058.14 190.252 L2062.42 190.252 L2062.42 194.28 Q2063.76 191.918 2065.91 190.784 Q2068.07 189.627 2071.14 189.627 Q2071.58 189.627 2072.12 189.696 Q2072.65 189.743 2073.3 189.858 L2073.32 194.233 Z" fill="#000000" fill-rule="nonzero" fill-opacity="1" /><path clip-path="url(#clip460)" d="M2086.79 193.238 Q2083.37 193.238 2081.38 195.923 Q2079.39 198.585 2079.39 203.238 Q2079.39 207.891 2081.35 210.576 Q2083.34 213.238 2086.79 213.238 Q2090.2 213.238 2092.19 210.553 Q2094.18 207.867 2094.18 203.238 Q2094.18 198.631 2092.19 195.946 Q2090.2 193.238 2086.79 193.238 M2086.79 189.627 Q2092.35 189.627 2095.52 193.238 Q2098.69 196.849 2098.69 203.238 Q2098.69 209.604 2095.52 213.238 Q2092.35 216.849 2086.79 216.849 Q2081.21 216.849 2078.04 213.238 Q2074.89 209.604 2074.89 203.238 Q2074.89 196.849 2078.04 193.238 Q2081.21 189.627 2086.79 189.627 Z" fill="#000000" fill-rule="nonzero" fill-opacity="1" /><path clip-path="url(#clip460)" d="M2105.75 190.252 L2110.01 190.252 L2110.01 216.641 Q2110.01 221.594 2108.11 223.816 Q2106.24 226.039 2102.05 226.039 L2100.43 226.039 L2100.43 222.428 L2101.56 222.428 Q2103.99 222.428 2104.87 221.293 Q2105.75 220.182 2105.75 216.641 L2105.75 190.252 M2105.75 180.159 L2110.01 180.159 L2110.01 185.553 L2105.75 185.553 L2105.75 180.159 Z" fill="#000000" fill-rule="nonzero" fill-opacity="1" /><path clip-path="url(#clip460)" d="M2141.1 202.15 L2141.1 204.233 L2121.51 204.233 Q2121.79 208.631 2124.15 210.946 Q2126.54 213.238 2130.77 213.238 Q2133.23 213.238 2135.52 212.636 Q2137.83 212.034 2140.1 210.83 L2140.1 214.858 Q2137.81 215.83 2135.4 216.34 Q2133 216.849 2130.52 216.849 Q2124.32 216.849 2120.68 213.238 Q2117.07 209.627 2117.07 203.469 Q2117.07 197.104 2120.5 193.377 Q2123.95 189.627 2129.78 189.627 Q2135.01 189.627 2138.04 193.006 Q2141.1 196.363 2141.1 202.15 M2136.84 200.9 Q2136.79 197.405 2134.87 195.321 Q2132.97 193.238 2129.82 193.238 Q2126.26 193.238 2124.11 195.252 Q2121.98 197.266 2121.65 200.923 L2136.84 200.9 Z" fill="#000000" fill-rule="nonzero" fill-opacity="1" /><path clip-path="url(#clip460)" d="M2166.75 191.247 L2166.75 195.229 Q2164.94 194.233 2163.11 193.747 Q2161.31 193.238 2159.45 193.238 Q2155.31 193.238 2153.02 195.877 Q2150.73 198.492 2150.73 203.238 Q2150.73 207.983 2153.02 210.622 Q2155.31 213.238 2159.45 213.238 Q2161.31 213.238 2163.11 212.752 Q2164.94 212.242 2166.75 211.247 L2166.75 215.182 Q2164.96 216.016 2163.04 216.432 Q2161.14 216.849 2158.99 216.849 Q2153.14 216.849 2149.69 213.168 Q2146.24 209.488 2146.24 203.238 Q2146.24 196.895 2149.71 193.261 Q2153.2 189.627 2159.27 189.627 Q2161.24 189.627 2163.11 190.043 Q2164.99 190.437 2166.75 191.247 Z" fill="#000000" fill-rule="nonzero" fill-opacity="1" /><path clip-path="url(#clip460)" d="M2178.37 182.891 L2178.37 190.252 L2187.14 190.252 L2187.14 193.562 L2178.37 193.562 L2178.37 207.636 Q2178.37 210.807 2179.22 211.71 Q2180.1 212.613 2182.76 212.613 L2187.14 212.613 L2187.14 216.178 L2182.76 216.178 Q2177.83 216.178 2175.96 214.349 Q2174.08 212.497 2174.08 207.636 L2174.08 193.562 L2170.96 193.562 L2170.96 190.252 L2174.08 190.252 L2174.08 182.891 L2178.37 182.891 Z" fill="#000000" fill-rule="nonzero" fill-opacity="1" /><path clip-path="url(#clip460)" d="M2192.74 190.252 L2197 190.252 L2197 216.178 L2192.74 216.178 L2192.74 190.252 M2192.74 180.159 L2197 180.159 L2197 185.553 L2192.74 185.553 L2192.74 180.159 Z" fill="#000000" fill-rule="nonzero" fill-opacity="1" /><path clip-path="url(#clip460)" d="M2215.96 193.238 Q2212.53 193.238 2210.54 195.923 Q2208.55 198.585 2208.55 203.238 Q2208.55 207.891 2210.52 210.576 Q2212.51 213.238 2215.96 213.238 Q2219.36 213.238 2221.35 210.553 Q2223.34 207.867 2223.34 203.238 Q2223.34 198.631 2221.35 195.946 Q2219.36 193.238 2215.96 193.238 M2215.96 189.627 Q2221.51 189.627 2224.69 193.238 Q2227.86 196.849 2227.86 203.238 Q2227.86 209.604 2224.69 213.238 Q2221.51 216.849 2215.96 216.849 Q2210.38 216.849 2207.21 213.238 Q2204.06 209.604 2204.06 203.238 Q2204.06 196.849 2207.21 193.238 Q2210.38 189.627 2215.96 189.627 Z" fill="#000000" fill-rule="nonzero" fill-opacity="1" /><path clip-path="url(#clip460)" d="M2256.47 200.529 L2256.47 216.178 L2252.21 216.178 L2252.21 200.668 Q2252.21 196.988 2250.77 195.159 Q2249.34 193.33 2246.47 193.33 Q2243.02 193.33 2241.03 195.53 Q2239.04 197.729 2239.04 201.525 L2239.04 216.178 L2234.75 216.178 L2234.75 190.252 L2239.04 190.252 L2239.04 194.28 Q2240.57 191.942 2242.63 190.784 Q2244.71 189.627 2247.42 189.627 Q2251.88 189.627 2254.18 192.405 Q2256.47 195.159 2256.47 200.529 Z" fill="#000000" fill-rule="nonzero" fill-opacity="1" /></svg>
