<?xml version="1.0" encoding="utf-8"?>
<svg xmlns="http://www.w3.org/2000/svg" xmlns:xlink="http://www.w3.org/1999/xlink" width="600" height="400" viewBox="0 0 2400 1600">
<defs>
  <clipPath id="clip310">
    <rect x="0" y="0" width="2400" height="1600"/>
  </clipPath>
</defs>
<path clip-path="url(#clip310)" d="M0 1600 L2400 1600 L2400 0 L0 0  Z" fill="#ffffff" fill-rule="evenodd" fill-opacity="1"/>
<defs>
  <clipPath id="clip311">
    <rect x="480" y="0" width="1681" height="1600"/>
  </clipPath>
</defs>
<path clip-path="url(#clip310)" d="M186.274 1486.45 L2352.76 1486.45 L2352.76 47.2441 L186.274 47.2441  Z" fill="#ffffff" fill-rule="evenodd" fill-opacity="1"/>
<defs>
  <clipPath id="clip312">
    <rect x="186" y="47" width="2167" height="1440"/>
  </clipPath>
</defs>
<polyline clip-path="url(#clip312)" style="stroke:#000000; stroke-linecap:round; stroke-linejoin:round; stroke-width:2; stroke-opacity:0.1; fill:none" points="361.137,1486.45 361.137,47.2441 "/>
<polyline clip-path="url(#clip312)" style="stroke:#000000; stroke-linecap:round; stroke-linejoin:round; stroke-width:2; stroke-opacity:0.1; fill:none" points="928.873,1486.45 928.873,47.2441 "/>
<polyline clip-path="url(#clip312)" style="stroke:#000000; stroke-linecap:round; stroke-linejoin:round; stroke-width:2; stroke-opacity:0.1; fill:none" points="1496.61,1486.45 1496.61,47.2441 "/>
<polyline clip-path="url(#clip312)" style="stroke:#000000; stroke-linecap:round; stroke-linejoin:round; stroke-width:2; stroke-opacity:0.1; fill:none" points="2064.35,1486.45 2064.35,47.2441 "/>
<polyline clip-path="url(#clip310)" style="stroke:#000000; stroke-linecap:round; stroke-linejoin:round; stroke-width:4; stroke-opacity:1; fill:none" points="186.274,1486.45 2352.76,1486.45 "/>
<polyline clip-path="url(#clip310)" style="stroke:#000000; stroke-linecap:round; stroke-linejoin:round; stroke-width:4; stroke-opacity:1; fill:none" points="361.137,1486.45 361.137,1467.55 "/>
<polyline clip-path="url(#clip310)" style="stroke:#000000; stroke-linecap:round; stroke-linejoin:round; stroke-width:4; stroke-opacity:1; fill:none" points="928.873,1486.45 928.873,1467.55 "/>
<polyline clip-path="url(#clip310)" style="stroke:#000000; stroke-linecap:round; stroke-linejoin:round; stroke-width:4; stroke-opacity:1; fill:none" points="1496.61,1486.45 1496.61,1467.55 "/>
<polyline clip-path="url(#clip310)" style="stroke:#000000; stroke-linecap:round; stroke-linejoin:round; stroke-width:4; stroke-opacity:1; fill:none" points="2064.35,1486.45 2064.35,1467.55 "/>
<path clip-path="url(#clip310)" d="M330.778 1532.02 L360.454 1532.02 L360.454 1535.95 L330.778 1535.95 L330.778 1532.02 Z" fill="#000000" fill-rule="nonzero" fill-opacity="1" /><path clip-path="url(#clip310)" d="M370.593 1514.29 L388.949 1514.29 L388.949 1518.22 L374.875 1518.22 L374.875 1526.7 Q375.894 1526.35 376.912 1526.19 Q377.931 1526 378.949 1526 Q384.736 1526 388.116 1529.17 Q391.495 1532.34 391.495 1537.76 Q391.495 1543.34 388.023 1546.44 Q384.551 1549.52 378.232 1549.52 Q376.056 1549.52 373.787 1549.15 Q371.542 1548.78 369.134 1548.04 L369.134 1543.34 Q371.218 1544.47 373.44 1545.03 Q375.662 1545.58 378.139 1545.58 Q382.144 1545.58 384.482 1543.48 Q386.82 1541.37 386.82 1537.76 Q386.82 1534.15 384.482 1532.04 Q382.144 1529.94 378.139 1529.94 Q376.264 1529.94 374.389 1530.35 Q372.537 1530.77 370.593 1531.65 L370.593 1514.29 Z" fill="#000000" fill-rule="nonzero" fill-opacity="1" /><path clip-path="url(#clip310)" d="M928.873 1517.37 Q925.262 1517.37 923.433 1520.93 Q921.628 1524.47 921.628 1531.6 Q921.628 1538.71 923.433 1542.27 Q925.262 1545.82 928.873 1545.82 Q932.507 1545.82 934.313 1542.27 Q936.142 1538.71 936.142 1531.6 Q936.142 1524.47 934.313 1520.93 Q932.507 1517.37 928.873 1517.37 M928.873 1513.66 Q934.683 1513.66 937.739 1518.27 Q940.818 1522.85 940.818 1531.6 Q940.818 1540.33 937.739 1544.94 Q934.683 1549.52 928.873 1549.52 Q923.063 1549.52 919.984 1544.94 Q916.929 1540.33 916.929 1531.6 Q916.929 1522.85 919.984 1518.27 Q923.063 1513.66 928.873 1513.66 Z" fill="#000000" fill-rule="nonzero" fill-opacity="1" /><path clip-path="url(#clip310)" d="M1486.89 1514.29 L1505.24 1514.29 L1505.24 1518.22 L1491.17 1518.22 L1491.17 1526.7 Q1492.19 1526.35 1493.21 1526.19 Q1494.23 1526 1495.24 1526 Q1501.03 1526 1504.41 1529.17 Q1507.79 1532.34 1507.79 1537.76 Q1507.79 1543.34 1504.32 1546.44 Q1500.85 1549.52 1494.53 1549.52 Q1492.35 1549.52 1490.08 1549.15 Q1487.84 1548.78 1485.43 1548.04 L1485.43 1543.34 Q1487.51 1544.47 1489.73 1545.03 Q1491.96 1545.58 1494.43 1545.58 Q1498.44 1545.58 1500.78 1543.48 Q1503.11 1541.37 1503.11 1537.76 Q1503.11 1534.15 1500.78 1532.04 Q1498.44 1529.94 1494.43 1529.94 Q1492.56 1529.94 1490.68 1530.35 Q1488.83 1530.77 1486.89 1531.65 L1486.89 1514.29 Z" fill="#000000" fill-rule="nonzero" fill-opacity="1" /><path clip-path="url(#clip310)" d="M2039.03 1544.91 L2046.67 1544.91 L2046.67 1518.55 L2038.36 1520.21 L2038.36 1515.95 L2046.63 1514.29 L2051.3 1514.29 L2051.3 1544.91 L2058.94 1544.91 L2058.94 1548.85 L2039.03 1548.85 L2039.03 1544.91 Z" fill="#000000" fill-rule="nonzero" fill-opacity="1" /><path clip-path="url(#clip310)" d="M2078.39 1517.37 Q2074.77 1517.37 2072.95 1520.93 Q2071.14 1524.47 2071.14 1531.6 Q2071.14 1538.71 2072.95 1542.27 Q2074.77 1545.82 2078.39 1545.82 Q2082.02 1545.82 2083.82 1542.27 Q2085.65 1538.71 2085.65 1531.6 Q2085.65 1524.47 2083.82 1520.93 Q2082.02 1517.37 2078.39 1517.37 M2078.39 1513.66 Q2084.2 1513.66 2087.25 1518.27 Q2090.33 1522.85 2090.33 1531.6 Q2090.33 1540.33 2087.25 1544.94 Q2084.2 1549.52 2078.39 1549.52 Q2072.57 1549.52 2069.5 1544.94 Q2066.44 1540.33 2066.44 1531.6 Q2066.44 1522.85 2069.5 1518.27 Q2072.57 1513.66 2078.39 1513.66 Z" fill="#000000" fill-rule="nonzero" fill-opacity="1" /><polyline clip-path="url(#clip312)" style="stroke:#000000; stroke-linecap:round; stroke-linejoin:round; stroke-width:2; stroke-opacity:0.1; fill:none" points="186.274,1445.72 2352.76,1445.72 "/>
<polyline clip-path="url(#clip312)" style="stroke:#000000; stroke-linecap:round; stroke-linejoin:round; stroke-width:2; stroke-opacity:0.1; fill:none" points="186.274,1167.11 2352.76,1167.11 "/>
<polyline clip-path="url(#clip312)" style="stroke:#000000; stroke-linecap:round; stroke-linejoin:round; stroke-width:2; stroke-opacity:0.1; fill:none" points="186.274,888.5 2352.76,888.5 "/>
<polyline clip-path="url(#clip312)" style="stroke:#000000; stroke-linecap:round; stroke-linejoin:round; stroke-width:2; stroke-opacity:0.1; fill:none" points="186.274,609.893 2352.76,609.893 "/>
<polyline clip-path="url(#clip312)" style="stroke:#000000; stroke-linecap:round; stroke-linejoin:round; stroke-width:2; stroke-opacity:0.1; fill:none" points="186.274,331.285 2352.76,331.285 "/>
<polyline clip-path="url(#clip312)" style="stroke:#000000; stroke-linecap:round; stroke-linejoin:round; stroke-width:2; stroke-opacity:0.1; fill:none" points="186.274,52.6774 2352.76,52.6774 "/>
<polyline clip-path="url(#clip310)" style="stroke:#000000; stroke-linecap:round; stroke-linejoin:round; stroke-width:4; stroke-opacity:1; fill:none" points="186.274,1486.45 186.274,47.2441 "/>
<polyline clip-path="url(#clip310)" style="stroke:#000000; stroke-linecap:round; stroke-linejoin:round; stroke-width:4; stroke-opacity:1; fill:none" points="186.274,1445.72 205.172,1445.72 "/>
<polyline clip-path="url(#clip310)" style="stroke:#000000; stroke-linecap:round; stroke-linejoin:round; stroke-width:4; stroke-opacity:1; fill:none" points="186.274,1167.11 205.172,1167.11 "/>
<polyline clip-path="url(#clip310)" style="stroke:#000000; stroke-linecap:round; stroke-linejoin:round; stroke-width:4; stroke-opacity:1; fill:none" points="186.274,888.5 205.172,888.5 "/>
<polyline clip-path="url(#clip310)" style="stroke:#000000; stroke-linecap:round; stroke-linejoin:round; stroke-width:4; stroke-opacity:1; fill:none" points="186.274,609.893 205.172,609.893 "/>
<polyline clip-path="url(#clip310)" style="stroke:#000000; stroke-linecap:round; stroke-linejoin:round; stroke-width:4; stroke-opacity:1; fill:none" points="186.274,331.285 205.172,331.285 "/>
<polyline clip-path="url(#clip310)" style="stroke:#000000; stroke-linecap:round; stroke-linejoin:round; stroke-width:4; stroke-opacity:1; fill:none" points="186.274,52.6774 205.172,52.6774 "/>
<path clip-path="url(#clip310)" d="M62.9365 1431.51 Q59.3254 1431.51 57.4967 1435.08 Q55.6912 1438.62 55.6912 1445.75 Q55.6912 1452.86 57.4967 1456.42 Q59.3254 1459.96 62.9365 1459.96 Q66.5707 1459.96 68.3763 1456.42 Q70.205 1452.86 70.205 1445.75 Q70.205 1438.62 68.3763 1435.08 Q66.5707 1431.51 62.9365 1431.51 M62.9365 1427.81 Q68.7467 1427.81 71.8022 1432.42 Q74.8809 1437 74.8809 1445.75 Q74.8809 1454.48 71.8022 1459.08 Q68.7467 1463.67 62.9365 1463.67 Q57.1264 1463.67 54.0477 1459.08 Q50.9921 1454.48 50.9921 1445.75 Q50.9921 1437 54.0477 1432.42 Q57.1264 1427.81 62.9365 1427.81 Z" fill="#000000" fill-rule="nonzero" fill-opacity="1" /><path clip-path="url(#clip310)" d="M83.0984 1457.12 L87.9827 1457.12 L87.9827 1463 L83.0984 1463 L83.0984 1457.12 Z" fill="#000000" fill-rule="nonzero" fill-opacity="1" /><path clip-path="url(#clip310)" d="M108.168 1431.51 Q104.557 1431.51 102.728 1435.08 Q100.922 1438.62 100.922 1445.75 Q100.922 1452.86 102.728 1456.42 Q104.557 1459.96 108.168 1459.96 Q111.802 1459.96 113.608 1456.42 Q115.436 1452.86 115.436 1445.75 Q115.436 1438.62 113.608 1435.08 Q111.802 1431.51 108.168 1431.51 M108.168 1427.81 Q113.978 1427.81 117.033 1432.42 Q120.112 1437 120.112 1445.75 Q120.112 1454.48 117.033 1459.08 Q113.978 1463.67 108.168 1463.67 Q102.358 1463.67 99.2789 1459.08 Q96.2234 1454.48 96.2234 1445.75 Q96.2234 1437 99.2789 1432.42 Q102.358 1427.81 108.168 1427.81 Z" fill="#000000" fill-rule="nonzero" fill-opacity="1" /><path clip-path="url(#clip310)" d="M138.33 1431.51 Q134.719 1431.51 132.89 1435.08 Q131.084 1438.62 131.084 1445.75 Q131.084 1452.86 132.89 1456.42 Q134.719 1459.96 138.33 1459.96 Q141.964 1459.96 143.769 1456.42 Q145.598 1452.86 145.598 1445.75 Q145.598 1438.62 143.769 1435.08 Q141.964 1431.51 138.33 1431.51 M138.33 1427.81 Q144.14 1427.81 147.195 1432.42 Q150.274 1437 150.274 1445.75 Q150.274 1454.48 147.195 1459.08 Q144.14 1463.67 138.33 1463.67 Q132.519 1463.67 129.441 1459.08 Q126.385 1454.48 126.385 1445.75 Q126.385 1437 129.441 1432.42 Q132.519 1427.81 138.33 1427.81 Z" fill="#000000" fill-rule="nonzero" fill-opacity="1" /><path clip-path="url(#clip310)" d="M63.9319 1152.91 Q60.3208 1152.91 58.4921 1156.47 Q56.6865 1160.01 56.6865 1167.14 Q56.6865 1174.25 58.4921 1177.81 Q60.3208 1181.36 63.9319 1181.36 Q67.5661 1181.36 69.3717 1177.81 Q71.2004 1174.25 71.2004 1167.14 Q71.2004 1160.01 69.3717 1156.47 Q67.5661 1152.91 63.9319 1152.91 M63.9319 1149.2 Q69.742 1149.2 72.7976 1153.81 Q75.8763 1158.39 75.8763 1167.14 Q75.8763 1175.87 72.7976 1180.48 Q69.742 1185.06 63.9319 1185.06 Q58.1217 1185.06 55.043 1180.48 Q51.9875 1175.87 51.9875 1167.14 Q51.9875 1158.39 55.043 1153.81 Q58.1217 1149.2 63.9319 1149.2 Z" fill="#000000" fill-rule="nonzero" fill-opacity="1" /><path clip-path="url(#clip310)" d="M84.0938 1178.51 L88.978 1178.51 L88.978 1184.39 L84.0938 1184.39 L84.0938 1178.51 Z" fill="#000000" fill-rule="nonzero" fill-opacity="1" /><path clip-path="url(#clip310)" d="M109.163 1152.91 Q105.552 1152.91 103.723 1156.47 Q101.918 1160.01 101.918 1167.14 Q101.918 1174.25 103.723 1177.81 Q105.552 1181.36 109.163 1181.36 Q112.797 1181.36 114.603 1177.81 Q116.432 1174.25 116.432 1167.14 Q116.432 1160.01 114.603 1156.47 Q112.797 1152.91 109.163 1152.91 M109.163 1149.2 Q114.973 1149.2 118.029 1153.81 Q121.107 1158.39 121.107 1167.14 Q121.107 1175.87 118.029 1180.48 Q114.973 1185.06 109.163 1185.06 Q103.353 1185.06 100.274 1180.48 Q97.2187 1175.87 97.2187 1167.14 Q97.2187 1158.39 100.274 1153.81 Q103.353 1149.2 109.163 1149.2 Z" fill="#000000" fill-rule="nonzero" fill-opacity="1" /><path clip-path="url(#clip310)" d="M129.371 1149.83 L147.728 1149.83 L147.728 1153.76 L133.654 1153.76 L133.654 1162.24 Q134.672 1161.89 135.691 1161.73 Q136.709 1161.54 137.728 1161.54 Q143.515 1161.54 146.894 1164.71 Q150.274 1167.88 150.274 1173.3 Q150.274 1178.88 146.802 1181.98 Q143.33 1185.06 137.01 1185.06 Q134.834 1185.06 132.566 1184.69 Q130.32 1184.32 127.913 1183.58 L127.913 1178.88 Q129.996 1180.01 132.219 1180.57 Q134.441 1181.12 136.918 1181.12 Q140.922 1181.12 143.26 1179.02 Q145.598 1176.91 145.598 1173.3 Q145.598 1169.69 143.26 1167.58 Q140.922 1165.48 136.918 1165.48 Q135.043 1165.48 133.168 1165.89 Q131.316 1166.31 129.371 1167.19 L129.371 1149.83 Z" fill="#000000" fill-rule="nonzero" fill-opacity="1" /><path clip-path="url(#clip310)" d="M62.9365 874.299 Q59.3254 874.299 57.4967 877.864 Q55.6912 881.405 55.6912 888.535 Q55.6912 895.642 57.4967 899.206 Q59.3254 902.748 62.9365 902.748 Q66.5707 902.748 68.3763 899.206 Q70.205 895.642 70.205 888.535 Q70.205 881.405 68.3763 877.864 Q66.5707 874.299 62.9365 874.299 M62.9365 870.595 Q68.7467 870.595 71.8022 875.202 Q74.8809 879.785 74.8809 888.535 Q74.8809 897.262 71.8022 901.868 Q68.7467 906.452 62.9365 906.452 Q57.1264 906.452 54.0477 901.868 Q50.9921 897.262 50.9921 888.535 Q50.9921 879.785 54.0477 875.202 Q57.1264 870.595 62.9365 870.595 Z" fill="#000000" fill-rule="nonzero" fill-opacity="1" /><path clip-path="url(#clip310)" d="M83.0984 899.901 L87.9827 899.901 L87.9827 905.78 L83.0984 905.78 L83.0984 899.901 Z" fill="#000000" fill-rule="nonzero" fill-opacity="1" /><path clip-path="url(#clip310)" d="M98.978 901.845 L106.617 901.845 L106.617 875.48 L98.3067 877.146 L98.3067 872.887 L106.571 871.22 L111.246 871.22 L111.246 901.845 L118.885 901.845 L118.885 905.78 L98.978 905.78 L98.978 901.845 Z" fill="#000000" fill-rule="nonzero" fill-opacity="1" /><path clip-path="url(#clip310)" d="M138.33 874.299 Q134.719 874.299 132.89 877.864 Q131.084 881.405 131.084 888.535 Q131.084 895.642 132.89 899.206 Q134.719 902.748 138.33 902.748 Q141.964 902.748 143.769 899.206 Q145.598 895.642 145.598 888.535 Q145.598 881.405 143.769 877.864 Q141.964 874.299 138.33 874.299 M138.33 870.595 Q144.14 870.595 147.195 875.202 Q150.274 879.785 150.274 888.535 Q150.274 897.262 147.195 901.868 Q144.14 906.452 138.33 906.452 Q132.519 906.452 129.441 901.868 Q126.385 897.262 126.385 888.535 Q126.385 879.785 129.441 875.202 Q132.519 870.595 138.33 870.595 Z" fill="#000000" fill-rule="nonzero" fill-opacity="1" /><path clip-path="url(#clip310)" d="M63.9319 595.691 Q60.3208 595.691 58.4921 599.256 Q56.6865 602.798 56.6865 609.927 Q56.6865 617.034 58.4921 620.599 Q60.3208 624.14 63.9319 624.14 Q67.5661 624.14 69.3717 620.599 Q71.2004 617.034 71.2004 609.927 Q71.2004 602.798 69.3717 599.256 Q67.5661 595.691 63.9319 595.691 M63.9319 591.988 Q69.742 591.988 72.7976 596.594 Q75.8763 601.177 75.8763 609.927 Q75.8763 618.654 72.7976 623.261 Q69.742 627.844 63.9319 627.844 Q58.1217 627.844 55.043 623.261 Q51.9875 618.654 51.9875 609.927 Q51.9875 601.177 55.043 596.594 Q58.1217 591.988 63.9319 591.988 Z" fill="#000000" fill-rule="nonzero" fill-opacity="1" /><path clip-path="url(#clip310)" d="M84.0938 621.293 L88.978 621.293 L88.978 627.173 L84.0938 627.173 L84.0938 621.293 Z" fill="#000000" fill-rule="nonzero" fill-opacity="1" /><path clip-path="url(#clip310)" d="M99.9733 623.238 L107.612 623.238 L107.612 596.872 L99.3021 598.539 L99.3021 594.279 L107.566 592.613 L112.242 592.613 L112.242 623.238 L119.881 623.238 L119.881 627.173 L99.9733 627.173 L99.9733 623.238 Z" fill="#000000" fill-rule="nonzero" fill-opacity="1" /><path clip-path="url(#clip310)" d="M129.371 592.613 L147.728 592.613 L147.728 596.548 L133.654 596.548 L133.654 605.02 Q134.672 604.673 135.691 604.511 Q136.709 604.326 137.728 604.326 Q143.515 604.326 146.894 607.497 Q150.274 610.668 150.274 616.085 Q150.274 621.663 146.802 624.765 Q143.33 627.844 137.01 627.844 Q134.834 627.844 132.566 627.474 Q130.32 627.103 127.913 626.363 L127.913 621.663 Q129.996 622.798 132.219 623.353 Q134.441 623.909 136.918 623.909 Q140.922 623.909 143.26 621.802 Q145.598 619.696 145.598 616.085 Q145.598 612.474 143.26 610.367 Q140.922 608.261 136.918 608.261 Q135.043 608.261 133.168 608.677 Q131.316 609.094 129.371 609.974 L129.371 592.613 Z" fill="#000000" fill-rule="nonzero" fill-opacity="1" /><path clip-path="url(#clip310)" d="M62.9365 317.084 Q59.3254 317.084 57.4967 320.649 Q55.6912 324.19 55.6912 331.32 Q55.6912 338.426 57.4967 341.991 Q59.3254 345.533 62.9365 345.533 Q66.5707 345.533 68.3763 341.991 Q70.205 338.426 70.205 331.32 Q70.205 324.19 68.3763 320.649 Q66.5707 317.084 62.9365 317.084 M62.9365 313.38 Q68.7467 313.38 71.8022 317.986 Q74.8809 322.57 74.8809 331.32 Q74.8809 340.047 71.8022 344.653 Q68.7467 349.236 62.9365 349.236 Q57.1264 349.236 54.0477 344.653 Q50.9921 340.047 50.9921 331.32 Q50.9921 322.57 54.0477 317.986 Q57.1264 313.38 62.9365 313.38 Z" fill="#000000" fill-rule="nonzero" fill-opacity="1" /><path clip-path="url(#clip310)" d="M83.0984 342.685 L87.9827 342.685 L87.9827 348.565 L83.0984 348.565 L83.0984 342.685 Z" fill="#000000" fill-rule="nonzero" fill-opacity="1" /><path clip-path="url(#clip310)" d="M102.196 344.63 L118.515 344.63 L118.515 348.565 L96.5706 348.565 L96.5706 344.63 Q99.2326 341.875 103.816 337.246 Q108.422 332.593 109.603 331.25 Q111.848 328.727 112.728 326.991 Q113.631 325.232 113.631 323.542 Q113.631 320.787 111.686 319.051 Q109.765 317.315 106.663 317.315 Q104.464 317.315 102.01 318.079 Q99.5798 318.843 96.8021 320.394 L96.8021 315.672 Q99.6261 314.537 102.08 313.959 Q104.534 313.38 106.571 313.38 Q111.941 313.38 115.135 316.065 Q118.33 318.75 118.33 323.241 Q118.33 325.371 117.52 327.292 Q116.733 329.19 114.626 331.783 Q114.047 332.454 110.946 335.672 Q107.844 338.866 102.196 344.63 Z" fill="#000000" fill-rule="nonzero" fill-opacity="1" /><path clip-path="url(#clip310)" d="M138.33 317.084 Q134.719 317.084 132.89 320.649 Q131.084 324.19 131.084 331.32 Q131.084 338.426 132.89 341.991 Q134.719 345.533 138.33 345.533 Q141.964 345.533 143.769 341.991 Q145.598 338.426 145.598 331.32 Q145.598 324.19 143.769 320.649 Q141.964 317.084 138.33 317.084 M138.33 313.38 Q144.14 313.38 147.195 317.986 Q150.274 322.57 150.274 331.32 Q150.274 340.047 147.195 344.653 Q144.14 349.236 138.33 349.236 Q132.519 349.236 129.441 344.653 Q126.385 340.047 126.385 331.32 Q126.385 322.57 129.441 317.986 Q132.519 313.38 138.33 313.38 Z" fill="#000000" fill-rule="nonzero" fill-opacity="1" /><path clip-path="url(#clip310)" d="M63.9319 38.476 Q60.3208 38.476 58.4921 42.0408 Q56.6865 45.5825 56.6865 52.7121 Q56.6865 59.8185 58.4921 63.3833 Q60.3208 66.925 63.9319 66.925 Q67.5661 66.925 69.3717 63.3833 Q71.2004 59.8185 71.2004 52.7121 Q71.2004 45.5825 69.3717 42.0408 Q67.5661 38.476 63.9319 38.476 M63.9319 34.7724 Q69.742 34.7724 72.7976 39.3788 Q75.8763 43.9621 75.8763 52.7121 Q75.8763 61.4389 72.7976 66.0453 Q69.742 70.6286 63.9319 70.6286 Q58.1217 70.6286 55.043 66.0453 Q51.9875 61.4389 51.9875 52.7121 Q51.9875 43.9621 55.043 39.3788 Q58.1217 34.7724 63.9319 34.7724 Z" fill="#000000" fill-rule="nonzero" fill-opacity="1" /><path clip-path="url(#clip310)" d="M84.0938 64.0778 L88.978 64.0778 L88.978 69.9574 L84.0938 69.9574 L84.0938 64.0778 Z" fill="#000000" fill-rule="nonzero" fill-opacity="1" /><path clip-path="url(#clip310)" d="M103.191 66.0222 L119.51 66.0222 L119.51 69.9574 L97.566 69.9574 L97.566 66.0222 Q100.228 63.2676 104.811 58.638 Q109.418 53.9852 110.598 52.6426 Q112.844 50.1195 113.723 48.3834 Q114.626 46.6241 114.626 44.9343 Q114.626 42.1797 112.682 40.4436 Q110.76 38.7075 107.658 38.7075 Q105.459 38.7075 103.006 39.4714 Q100.575 40.2353 97.7974 41.7862 L97.7974 37.064 Q100.621 35.9298 103.075 35.3511 Q105.529 34.7724 107.566 34.7724 Q112.936 34.7724 116.131 37.4575 Q119.325 40.1427 119.325 44.6334 Q119.325 46.763 118.515 48.6843 Q117.728 50.5825 115.621 53.175 Q115.043 53.8463 111.941 57.0639 Q108.839 60.2583 103.191 66.0222 Z" fill="#000000" fill-rule="nonzero" fill-opacity="1" /><path clip-path="url(#clip310)" d="M129.371 35.3974 L147.728 35.3974 L147.728 39.3325 L133.654 39.3325 L133.654 47.8047 Q134.672 47.4575 135.691 47.2954 Q136.709 47.1103 137.728 47.1103 Q143.515 47.1103 146.894 50.2815 Q150.274 53.4528 150.274 58.8694 Q150.274 64.4481 146.802 67.55 Q143.33 70.6286 137.01 70.6286 Q134.834 70.6286 132.566 70.2583 Q130.32 69.8879 127.913 69.1472 L127.913 64.4481 Q129.996 65.5824 132.219 66.1379 Q134.441 66.6935 136.918 66.6935 Q140.922 66.6935 143.26 64.587 Q145.598 62.4805 145.598 58.8694 Q145.598 55.2584 143.26 53.1519 Q140.922 51.0454 136.918 51.0454 Q135.043 51.0454 133.168 51.4621 Q131.316 51.8787 129.371 52.7584 L129.371 35.3974 Z" fill="#000000" fill-rule="nonzero" fill-opacity="1" /><path clip-path="url(#clip312)" d="M247.59 1445.72 L258.944 1445.72 L270.299 1445.72 L281.654 1445.71 L293.008 1445.71 L304.363 1445.71 L315.718 1445.71 L327.073 1445.71 L338.427 1445.71 L349.782 1445.71 L361.137 1445.71 L372.492 1445.71 L383.846 1445.7 L395.201 1445.7 L406.556 1445.69 L417.91 1445.69 L429.265 1445.68 L440.62 1445.67 L451.975 1445.65 L463.329 1445.63 L474.684 1445.6 L486.039 1445.57 L497.394 1445.53 L508.748 1445.47 L520.103 1445.41 L531.458 1445.32 L542.812 1445.21 L554.167 1445.07 L565.522 1444.9 L576.877 1444.69 L588.231 1444.43 L599.586 1444.1 L610.941 1443.71 L622.296 1443.22 L633.65 1442.62 L645.005 1441.9 L656.36 1441.03 L667.714 1439.97 L679.069 1438.71 L690.424 1437.2 L701.779 1435.4 L713.133 1433.27 L724.488 1430.75 L735.843 1427.79 L747.198 1424.33 L758.552 1420.29 L769.907 1415.59 L781.262 1410.17 L792.616 1403.91 L803.971 1396.74 L815.326 1388.56 L826.681 1379.25 L838.035 1368.7 L849.39 1356.81 L860.745 1343.47 L872.1 1328.55 L883.454 1311.96 L894.809 1293.58 L906.164 1273.3 L917.518 1251.05 L928.873 1226.73 L940.228 1200.28 L951.583 1171.65 L962.937 1140.81 L974.292 1107.75 L985.647 1072.48 L997.002 1035.04 L1008.36 995.524 L1019.71 954.017 L1031.07 910.662 L1042.42 865.628 L1053.78 819.12 L1065.13 771.377 L1076.48 722.668 L1087.84 673.297 L1099.19 623.594 L1110.55 573.916 L1121.9 524.641 L1133.26 476.165 L1144.61 428.897 L1155.97 383.252 L1167.32 339.648 L1178.68 298.494 L1190.03 260.192 L1201.39 225.124 L1212.74 193.647 L1224.1 166.09 L1235.45 142.742 L1246.81 123.855 L1258.16 109.634 L1269.51 100.233 L1280.87 95.7576 L1292.22 96.2557 L1303.58 101.722 L1314.93 112.097 L1326.29 127.265 L1337.64 147.062 L1349 171.273 L1360.35 199.639 L1371.71 231.862 L1383.06 267.606 L1394.42 306.509 L1405.77 348.185 L1417.13 392.231 L1428.48 438.234 L1439.84 485.777 L1451.19 534.445 L1462.55 583.832 L1473.9 633.545 L1485.25 683.209 L1496.61 732.473 L1507.96 781.012 L1519.32 828.529 L1530.67 874.76 L1542.03 919.473 L1553.38 962.471 L1564.74 1003.59 L1576.09 1042.7 L1587.45 1079.7 L1598.8 1114.54 L1610.16 1147.16 L1621.51 1177.55 L1632.87 1205.74 L1644.22 1231.76 L1655.58 1255.66 L1666.93 1277.51 L1678.29 1297.4 L1689.64 1315.42 L1700.99 1331.67 L1712.35 1346.26 L1723.7 1359.3 L1735.06 1370.91 L1746.41 1381.2 L1757.77 1390.28 L1769.12 1398.26 L1780.48 1405.24 L1791.83 1411.31 L1803.19 1416.59 L1814.54 1421.14 L1825.9 1425.06 L1837.25 1428.42 L1848.61 1431.29 L1859.96 1433.72 L1871.32 1435.78 L1882.67 1437.52 L1894.02 1438.98 L1905.38 1440.2 L1916.73 1441.21 L1928.09 1442.06 L1939.44 1442.75 L1950.8 1443.32 L1962.15 1443.79 L1973.51 1444.17 L1984.86 1444.49 L1996.22 1444.74 L2007.57 1444.94 L2018.93 1445.1 L2030.28 1445.23 L2041.64 1445.34 L2052.99 1445.42 L2064.35 1445.49 L2075.7 1445.54 L2087.06 1445.58 L2098.41 1445.61 L2109.76 1445.63 L2121.12 1445.65 L2132.47 1445.67 L2143.83 1445.68 L2155.18 1445.69 L2166.54 1445.7 L2177.89 1445.7 L2189.25 1445.7 L2200.6 1445.71 L2211.96 1445.71 L2223.31 1445.71 L2234.67 1445.71 L2246.02 1445.71 L2257.38 1445.71 L2268.73 1445.71 L2280.09 1445.71 L2291.44 1445.71 L2291.44 1445.72 L2280.09 1445.72 L2268.73 1445.72 L2257.38 1445.72 L2246.02 1445.72 L2234.67 1445.72 L2223.31 1445.72 L2211.96 1445.72 L2200.6 1445.72 L2189.25 1445.72 L2177.89 1445.72 L2166.54 1445.72 L2155.18 1445.72 L2143.83 1445.72 L2132.47 1445.72 L2121.12 1445.72 L2109.76 1445.72 L2098.41 1445.72 L2087.06 1445.72 L2075.7 1445.72 L2064.35 1445.72 L2052.99 1445.72 L2041.64 1445.72 L2030.28 1445.72 L2018.93 1445.72 L2007.57 1445.72 L1996.22 1445.72 L1984.86 1445.72 L1973.51 1445.72 L1962.15 1445.72 L1950.8 1445.72 L1939.44 1445.72 L1928.09 1445.72 L1916.73 1445.72 L1905.38 1445.72 L1894.02 1445.72 L1882.67 1445.72 L1871.32 1445.72 L1859.96 1445.72 L1848.61 1445.72 L1837.25 1445.72 L1825.9 1445.72 L1814.54 1445.72 L1803.19 1445.72 L1791.83 1445.72 L1780.48 1445.72 L1769.12 1445.72 L1757.77 1445.72 L1746.41 1445.72 L1735.06 1445.72 L1723.7 1445.72 L1712.35 1445.72 L1700.99 1445.72 L1689.64 1445.72 L1678.29 1445.72 L1666.93 1445.72 L1655.58 1445.72 L1644.22 1445.72 L1632.87 1445.72 L1621.51 1445.72 L1610.16 1445.72 L1598.8 1445.72 L1587.45 1445.72 L1576.09 1445.72 L1564.74 1445.72 L1553.38 1445.72 L1542.03 1445.72 L1530.67 1445.72 L1519.32 1445.72 L1507.96 1445.72 L1496.61 1445.72 L1485.25 1445.72 L1473.9 1445.72 L1462.55 1445.72 L1451.19 1445.72 L1439.84 1445.72 L1428.48 1445.72 L1417.13 1445.72 L1405.77 1445.72 L1394.42 1445.72 L1383.06 1445.72 L1371.71 1445.72 L1360.35 1445.72 L1349 1445.72 L1337.64 1445.72 L1326.29 1445.72 L1314.93 1445.72 L1303.58 1445.72 L1292.22 1445.72 L1280.87 1445.72 L1269.51 1445.72 L1258.16 1445.72 L1246.81 1445.72 L1235.45 1445.72 L1224.1 1445.72 L1212.74 1445.72 L1201.39 1445.72 L1190.03 1445.72 L1178.68 1445.72 L1167.32 1445.72 L1155.97 1445.72 L1144.61 1445.72 L1133.26 1445.72 L1121.9 1445.72 L1110.55 1445.72 L1099.19 1445.72 L1087.84 1445.72 L1076.48 1445.72 L1065.13 1445.72 L1053.78 1445.72 L1042.42 1445.72 L1031.07 1445.72 L1019.71 1445.72 L1008.36 1445.72 L997.002 1445.72 L985.647 1445.72 L974.292 1445.72 L962.937 1445.72 L951.583 1445.72 L940.228 1445.72 L928.873 1445.72 L917.518 1445.72 L906.164 1445.72 L894.809 1445.72 L883.454 1445.72 L872.1 1445.72 L860.745 1445.72 L849.39 1445.72 L838.035 1445.72 L826.681 1445.72 L815.326 1445.72 L803.971 1445.72 L792.616 1445.72 L781.262 1445.72 L769.907 1445.72 L758.552 1445.72 L747.198 1445.72 L735.843 1445.72 L724.488 1445.72 L713.133 1445.72 L701.779 1445.72 L690.424 1445.72 L679.069 1445.72 L667.714 1445.72 L656.36 1445.72 L645.005 1445.72 L633.65 1445.72 L622.296 1445.72 L610.941 1445.72 L599.586 1445.72 L588.231 1445.72 L576.877 1445.72 L565.522 1445.72 L554.167 1445.72 L542.812 1445.72 L531.458 1445.72 L520.103 1445.72 L508.748 1445.72 L497.394 1445.72 L486.039 1445.72 L474.684 1445.72 L463.329 1445.72 L451.975 1445.72 L440.62 1445.72 L429.265 1445.72 L417.91 1445.72 L406.556 1445.72 L395.201 1445.72 L383.846 1445.72 L372.492 1445.72 L361.137 1445.72 L349.782 1445.72 L338.427 1445.72 L327.073 1445.72 L315.718 1445.72 L304.363 1445.72 L293.008 1445.72 L281.654 1445.72 L270.299 1445.72 L258.944 1445.72 L247.59 1445.72  Z" fill="#009af9" fill-rule="evenodd" fill-opacity="0.2"/>
<polyline clip-path="url(#clip312)" style="stroke:#009af9; stroke-linecap:round; stroke-linejoin:round; stroke-width:4; stroke-opacity:1; fill:none" points="247.59,1445.72 258.944,1445.72 270.299,1445.72 281.654,1445.71 293.008,1445.71 304.363,1445.71 315.718,1445.71 327.073,1445.71 338.427,1445.71 349.782,1445.71 361.137,1445.71 372.492,1445.71 383.846,1445.7 395.201,1445.7 406.556,1445.69 417.91,1445.69 429.265,1445.68 440.62,1445.67 451.975,1445.65 463.329,1445.63 474.684,1445.6 486.039,1445.57 497.394,1445.53 508.748,1445.47 520.103,1445.41 531.458,1445.32 542.812,1445.21 554.167,1445.07 565.522,1444.9 576.877,1444.69 588.231,1444.43 599.586,1444.1 610.941,1443.71 622.296,1443.22 633.65,1442.62 645.005,1441.9 656.36,1441.03 667.714,1439.97 679.069,1438.71 690.424,1437.2 701.779,1435.4 713.133,1433.27 724.488,1430.75 735.843,1427.79 747.198,1424.33 758.552,1420.29 769.907,1415.59 781.262,1410.17 792.616,1403.91 803.971,1396.74 815.326,1388.56 826.681,1379.25 838.035,1368.7 849.39,1356.81 860.745,1343.47 872.1,1328.55 883.454,1311.96 894.809,1293.58 906.164,1273.3 917.518,1251.05 928.873,1226.73 940.228,1200.28 951.583,1171.65 962.937,1140.81 974.292,1107.75 985.647,1072.48 997.002,1035.04 1008.36,995.524 1019.71,954.017 1031.07,910.662 1042.42,865.628 1053.78,819.12 1065.13,771.377 1076.48,722.668 1087.84,673.297 1099.19,623.594 1110.55,573.916 1121.9,524.641 1133.26,476.165 1144.61,428.897 1155.97,383.252 1167.32,339.648 1178.68,298.494 1190.03,260.192 1201.39,225.124 1212.74,193.647 1224.1,166.09 1235.45,142.742 1246.81,123.855 1258.16,109.634 1269.51,100.233 1280.87,95.7576 1292.22,96.2557 1303.58,101.722 1314.93,112.097 1326.29,127.265 1337.64,147.062 1349,171.273 1360.35,199.639 1371.71,231.862 1383.06,267.606 1394.42,306.509 1405.77,348.185 1417.13,392.231 1428.48,438.234 1439.84,485.777 1451.19,534.445 1462.55,583.832 1473.9,633.545 1485.25,683.209 1496.61,732.473 1507.96,781.012 1519.32,828.529 1530.67,874.76 1542.03,919.473 1553.38,962.471 1564.74,1003.59 1576.09,1042.7 1587.45,1079.7 1598.8,1114.54 1610.16,1147.16 1621.51,1177.55 1632.87,1205.74 1644.22,1231.76 1655.58,1255.66 1666.93,1277.51 1678.29,1297.4 1689.64,1315.42 1700.99,1331.67 1712.35,1346.26 1723.7,1359.3 1735.06,1370.91 1746.41,1381.2 1757.77,1390.28 1769.12,1398.26 1780.48,1405.24 1791.83,1411.31 1803.19,1416.59 1814.54,1421.14 1825.9,1425.06 1837.25,1428.42 1848.61,1431.29 1859.96,1433.72 1871.32,1435.78 1882.67,1437.52 1894.02,1438.98 1905.38,1440.2 1916.73,1441.21 1928.09,1442.06 1939.44,1442.75 1950.8,1443.32 1962.15,1443.79 1973.51,1444.17 1984.86,1444.49 1996.22,1444.74 2007.57,1444.94 2018.93,1445.1 2030.28,1445.23 2041.64,1445.34 2052.99,1445.42 2064.35,1445.49 2075.7,1445.54 2087.06,1445.58 2098.41,1445.61 2109.76,1445.63 2121.12,1445.65 2132.47,1445.67 2143.83,1445.68 2155.18,1445.69 2166.54,1445.7 2177.89,1445.7 2189.25,1445.7 2200.6,1445.71 2211.96,1445.71 2223.31,1445.71 2234.67,1445.71 2246.02,1445.71 2257.38,1445.71 2268.73,1445.71 2280.09,1445.71 2291.44,1445.71 "/>
<path clip-path="url(#clip312)" d="M247.59 1445.72 L258.944 1445.72 L270.299 1445.72 L281.654 1445.72 L293.008 1445.71 L304.363 1445.71 L315.718 1445.71 L327.073 1445.71 L338.427 1445.71 L349.782 1445.71 L361.137 1445.71 L372.492 1445.71 L383.846 1445.71 L395.201 1445.7 L406.556 1445.7 L417.91 1445.69 L429.265 1445.68 L440.62 1445.67 L451.975 1445.66 L463.329 1445.64 L474.684 1445.62 L486.039 1445.59 L497.394 1445.55 L508.748 1445.5 L520.103 1445.44 L531.458 1445.36 L542.812 1445.26 L554.167 1445.14 L565.522 1444.98 L576.877 1444.79 L588.231 1444.55 L599.586 1444.25 L610.941 1443.88 L622.296 1443.43 L633.65 1442.88 L645.005 1442.2 L656.36 1441.38 L667.714 1440.4 L679.069 1439.21 L690.424 1437.79 L701.779 1436.09 L713.133 1434.07 L724.488 1431.68 L735.843 1428.86 L747.198 1425.55 L758.552 1421.69 L769.907 1417.19 L781.262 1411.97 L792.616 1405.94 L803.971 1399.02 L815.326 1391.09 L826.681 1382.06 L838.035 1371.81 L849.39 1360.23 L860.745 1347.2 L872.1 1332.61 L883.454 1316.34 L894.809 1298.28 L906.164 1278.34 L917.518 1256.39 L928.873 1232.38 L940.228 1206.21 L951.583 1177.83 L962.937 1147.21 L974.292 1114.32 L985.647 1079.19 L997.002 1041.84 L1008.36 1002.34 L1019.71 960.791 L1031.07 917.328 L1042.42 872.115 L1053.78 825.354 L1065.13 777.282 L1076.48 728.169 L1087.84 678.317 L1099.19 628.061 L1110.55 577.761 L1121.9 527.8 L1133.26 478.581 L1144.61 430.521 L1155.97 384.044 L1167.32 339.577 L1178.68 297.542 L1190.03 258.352 L1201.39 222.401 L1212.74 190.058 L1224.1 161.663 L1235.45 137.52 L1246.81 117.89 L1258.16 102.989 L1269.51 92.9803 L1280.87 87.9763 L1292.22 88.0326 L1303.58 93.1486 L1314.93 103.267 L1326.29 118.276 L1337.64 138.008 L1349 162.249 L1360.35 190.735 L1371.71 223.162 L1383.06 259.189 L1394.42 298.447 L1405.77 340.54 L1417.13 385.056 L1428.48 431.573 L1439.84 479.664 L1451.19 528.904 L1462.55 578.876 L1473.9 629.18 L1485.25 679.431 L1496.61 729.269 L1507.96 778.362 L1519.32 826.408 L1530.67 873.137 L1542.03 918.313 L1553.38 961.735 L1564.74 1003.24 L1576.09 1042.69 L1587.45 1079.99 L1598.8 1115.08 L1610.16 1147.91 L1621.51 1178.48 L1632.87 1206.81 L1644.22 1232.93 L1655.58 1256.9 L1666.93 1278.8 L1678.29 1298.71 L1689.64 1316.72 L1700.99 1332.95 L1712.35 1347.5 L1723.7 1360.5 L1735.06 1372.05 L1746.41 1382.27 L1757.77 1391.28 L1769.12 1399.18 L1780.48 1406.09 L1791.83 1412.09 L1803.19 1417.29 L1814.54 1421.78 L1825.9 1425.63 L1837.25 1428.93 L1848.61 1431.74 L1859.96 1434.12 L1871.32 1436.13 L1882.67 1437.82 L1894.02 1439.24 L1905.38 1440.42 L1916.73 1441.4 L1928.09 1442.22 L1939.44 1442.89 L1950.8 1443.44 L1962.15 1443.89 L1973.51 1444.26 L1984.86 1444.55 L1996.22 1444.79 L2007.57 1444.99 L2018.93 1445.14 L2030.28 1445.27 L2041.64 1445.36 L2052.99 1445.44 L2064.35 1445.5 L2075.7 1445.55 L2087.06 1445.59 L2098.41 1445.62 L2109.76 1445.64 L2121.12 1445.66 L2132.47 1445.67 L2143.83 1445.68 L2155.18 1445.69 L2166.54 1445.7 L2177.89 1445.7 L2189.25 1445.71 L2200.6 1445.71 L2211.96 1445.71 L2223.31 1445.71 L2234.67 1445.71 L2246.02 1445.71 L2257.38 1445.71 L2268.73 1445.71 L2280.09 1445.71 L2291.44 1445.72 L2291.44 1445.72 L2280.09 1445.72 L2268.73 1445.72 L2257.38 1445.72 L2246.02 1445.72 L2234.67 1445.72 L2223.31 1445.72 L2211.96 1445.72 L2200.6 1445.72 L2189.25 1445.72 L2177.89 1445.72 L2166.54 1445.72 L2155.18 1445.72 L2143.83 1445.72 L2132.47 1445.72 L2121.12 1445.72 L2109.76 1445.72 L2098.41 1445.72 L2087.06 1445.72 L2075.7 1445.72 L2064.35 1445.72 L2052.99 1445.72 L2041.64 1445.72 L2030.28 1445.72 L2018.93 1445.72 L2007.57 1445.72 L1996.22 1445.72 L1984.86 1445.72 L1973.51 1445.72 L1962.15 1445.72 L1950.8 1445.72 L1939.44 1445.72 L1928.09 1445.72 L1916.73 1445.72 L1905.38 1445.72 L1894.02 1445.72 L1882.67 1445.72 L1871.32 1445.72 L1859.96 1445.72 L1848.61 1445.72 L1837.25 1445.72 L1825.9 1445.72 L1814.54 1445.72 L1803.19 1445.72 L1791.83 1445.72 L1780.48 1445.72 L1769.12 1445.72 L1757.77 1445.72 L1746.41 1445.72 L1735.06 1445.72 L1723.7 1445.72 L1712.35 1445.72 L1700.99 1445.72 L1689.64 1445.72 L1678.29 1445.72 L1666.93 1445.72 L1655.58 1445.72 L1644.22 1445.72 L1632.87 1445.72 L1621.51 1445.72 L1610.16 1445.72 L1598.8 1445.72 L1587.45 1445.72 L1576.09 1445.72 L1564.74 1445.72 L1553.38 1445.72 L1542.03 1445.72 L1530.67 1445.72 L1519.32 1445.72 L1507.96 1445.72 L1496.61 1445.72 L1485.25 1445.72 L1473.9 1445.72 L1462.55 1445.72 L1451.19 1445.72 L1439.84 1445.72 L1428.48 1445.72 L1417.13 1445.72 L1405.77 1445.72 L1394.42 1445.72 L1383.06 1445.72 L1371.71 1445.72 L1360.35 1445.72 L1349 1445.72 L1337.64 1445.72 L1326.29 1445.72 L1314.93 1445.72 L1303.58 1445.72 L1292.22 1445.72 L1280.87 1445.72 L1269.51 1445.72 L1258.16 1445.72 L1246.81 1445.72 L1235.45 1445.72 L1224.1 1445.72 L1212.74 1445.72 L1201.39 1445.72 L1190.03 1445.72 L1178.68 1445.72 L1167.32 1445.72 L1155.97 1445.72 L1144.61 1445.72 L1133.26 1445.72 L1121.9 1445.72 L1110.55 1445.72 L1099.19 1445.72 L1087.84 1445.72 L1076.48 1445.72 L1065.13 1445.72 L1053.78 1445.72 L1042.42 1445.72 L1031.07 1445.72 L1019.71 1445.72 L1008.36 1445.72 L997.002 1445.72 L985.647 1445.72 L974.292 1445.72 L962.937 1445.72 L951.583 1445.72 L940.228 1445.72 L928.873 1445.72 L917.518 1445.72 L906.164 1445.72 L894.809 1445.72 L883.454 1445.72 L872.1 1445.72 L860.745 1445.72 L849.39 1445.72 L838.035 1445.72 L826.681 1445.72 L815.326 1445.72 L803.971 1445.72 L792.616 1445.72 L781.262 1445.72 L769.907 1445.72 L758.552 1445.72 L747.198 1445.72 L735.843 1445.72 L724.488 1445.72 L713.133 1445.72 L701.779 1445.72 L690.424 1445.72 L679.069 1445.72 L667.714 1445.72 L656.36 1445.72 L645.005 1445.72 L633.65 1445.72 L622.296 1445.72 L610.941 1445.72 L599.586 1445.72 L588.231 1445.72 L576.877 1445.72 L565.522 1445.72 L554.167 1445.72 L542.812 1445.72 L531.458 1445.72 L520.103 1445.72 L508.748 1445.72 L497.394 1445.72 L486.039 1445.72 L474.684 1445.72 L463.329 1445.72 L451.975 1445.72 L440.62 1445.72 L429.265 1445.72 L417.91 1445.72 L406.556 1445.72 L395.201 1445.72 L383.846 1445.72 L372.492 1445.72 L361.137 1445.72 L349.782 1445.72 L338.427 1445.72 L327.073 1445.72 L315.718 1445.72 L304.363 1445.72 L293.008 1445.72 L281.654 1445.72 L270.299 1445.72 L258.944 1445.72 L247.59 1445.72  Z" fill="#e26f46" fill-rule="evenodd" fill-opacity="0.2"/>
<polyline clip-path="url(#clip312)" style="stroke:#e26f46; stroke-linecap:round; stroke-linejoin:round; stroke-width:4; stroke-opacity:1; fill:none" points="247.59,1445.72 258.944,1445.72 270.299,1445.72 281.654,1445.72 293.008,1445.71 304.363,1445.71 315.718,1445.71 327.073,1445.71 338.427,1445.71 349.782,1445.71 361.137,1445.71 372.492,1445.71 383.846,1445.71 395.201,1445.7 406.556,1445.7 417.91,1445.69 429.265,1445.68 440.62,1445.67 451.975,1445.66 463.329,1445.64 474.684,1445.62 486.039,1445.59 497.394,1445.55 508.748,1445.5 520.103,1445.44 531.458,1445.36 542.812,1445.26 554.167,1445.14 565.522,1444.98 576.877,1444.79 588.231,1444.55 599.586,1444.25 610.941,1443.88 622.296,1443.43 633.65,1442.88 645.005,1442.2 656.36,1441.38 667.714,1440.4 679.069,1439.21 690.424,1437.79 701.779,1436.09 713.133,1434.07 724.488,1431.68 735.843,1428.86 747.198,1425.55 758.552,1421.69 769.907,1417.19 781.262,1411.97 792.616,1405.94 803.971,1399.02 815.326,1391.09 826.681,1382.06 838.035,1371.81 849.39,1360.23 860.745,1347.2 872.1,1332.61 883.454,1316.34 894.809,1298.28 906.164,1278.34 917.518,1256.39 928.873,1232.38 940.228,1206.21 951.583,1177.83 962.937,1147.21 974.292,1114.32 985.647,1079.19 997.002,1041.84 1008.36,1002.34 1019.71,960.791 1031.07,917.328 1042.42,872.115 1053.78,825.354 1065.13,777.282 1076.48,728.169 1087.84,678.317 1099.19,628.061 1110.55,577.761 1121.9,527.8 1133.26,478.581 1144.61,430.521 1155.97,384.044 1167.32,339.577 1178.68,297.542 1190.03,258.352 1201.39,222.401 1212.74,190.058 1224.1,161.663 1235.45,137.52 1246.81,117.89 1258.16,102.989 1269.51,92.9803 1280.87,87.9763 1292.22,88.0326 1303.58,93.1486 1314.93,103.267 1326.29,118.276 1337.64,138.008 1349,162.249 1360.35,190.735 1371.71,223.162 1383.06,259.189 1394.42,298.447 1405.77,340.54 1417.13,385.056 1428.48,431.573 1439.84,479.664 1451.19,528.904 1462.55,578.876 1473.9,629.18 1485.25,679.431 1496.61,729.269 1507.96,778.362 1519.32,826.408 1530.67,873.137 1542.03,918.313 1553.38,961.735 1564.74,1003.24 1576.09,1042.69 1587.45,1079.99 1598.8,1115.08 1610.16,1147.91 1621.51,1178.48 1632.87,1206.81 1644.22,1232.93 1655.58,1256.9 1666.93,1278.8 1678.29,1298.71 1689.64,1316.72 1700.99,1332.95 1712.35,1347.5 1723.7,1360.5 1735.06,1372.05 1746.41,1382.27 1757.77,1391.28 1769.12,1399.18 1780.48,1406.09 1791.83,1412.09 1803.19,1417.29 1814.54,1421.78 1825.9,1425.63 1837.25,1428.93 1848.61,1431.74 1859.96,1434.12 1871.32,1436.13 1882.67,1437.82 1894.02,1439.24 1905.38,1440.42 1916.73,1441.4 1928.09,1442.22 1939.44,1442.89 1950.8,1443.44 1962.15,1443.89 1973.51,1444.26 1984.86,1444.55 1996.22,1444.79 2007.57,1444.99 2018.93,1445.14 2030.28,1445.27 2041.64,1445.36 2052.99,1445.44 2064.35,1445.5 2075.7,1445.55 2087.06,1445.59 2098.41,1445.62 2109.76,1445.64 2121.12,1445.66 2132.47,1445.67 2143.83,1445.68 2155.18,1445.69 2166.54,1445.7 2177.89,1445.7 2189.25,1445.71 2200.6,1445.71 2211.96,1445.71 2223.31,1445.71 2234.67,1445.71 2246.02,1445.71 2257.38,1445.71 2268.73,1445.71 2280.09,1445.71 2291.44,1445.72 "/>
<path clip-path="url(#clip310)" d="M1580.01 250.738 L2280.54 250.738 L2280.54 95.2176 L1580.01 95.2176  Z" fill="#ffffff" fill-rule="evenodd" fill-opacity="1"/>
<polyline clip-path="url(#clip310)" style="stroke:#000000; stroke-linecap:round; stroke-linejoin:round; stroke-width:4; stroke-opacity:1; fill:none" points="1580.01,250.738 2280.54,250.738 2280.54,95.2176 1580.01,95.2176 1580.01,250.738 "/>
<path clip-path="url(#clip310)" d="M1604.08 167.794 L1748.51 167.794 L1748.51 126.322 L1604.08 126.322 L1604.08 167.794  Z" fill="#009af9" fill-rule="evenodd" fill-opacity="0.2"/>
<polyline clip-path="url(#clip310)" style="stroke:#009af9; stroke-linecap:round; stroke-linejoin:round; stroke-width:4; stroke-opacity:1; fill:none" points="1604.08,126.322 1748.51,126.322 "/>
<path clip-path="url(#clip310)" d="M1787.77 142.393 Q1787.05 141.977 1786.19 141.791 Q1785.36 141.583 1784.34 141.583 Q1780.73 141.583 1778.79 143.944 Q1776.86 146.282 1776.86 150.68 L1776.86 164.338 L1772.58 164.338 L1772.58 138.412 L1776.86 138.412 L1776.86 142.44 Q1778.21 140.078 1780.36 138.944 Q1782.51 137.787 1785.59 137.787 Q1786.03 137.787 1786.56 137.856 Q1787.1 137.903 1787.74 138.018 L1787.77 142.393 Z" fill="#000000" fill-rule="nonzero" fill-opacity="1" /><path clip-path="url(#clip310)" d="M1813.37 150.31 L1813.37 152.393 L1793.79 152.393 Q1794.06 156.791 1796.42 159.106 Q1798.81 161.398 1803.04 161.398 Q1805.5 161.398 1807.79 160.796 Q1810.1 160.194 1812.37 158.99 L1812.37 163.018 Q1810.08 163.99 1807.67 164.5 Q1805.27 165.009 1802.79 165.009 Q1796.59 165.009 1792.95 161.398 Q1789.34 157.787 1789.34 151.629 Q1789.34 145.264 1792.77 141.537 Q1796.22 137.787 1802.05 137.787 Q1807.28 137.787 1810.31 141.166 Q1813.37 144.523 1813.37 150.31 M1809.11 149.06 Q1809.06 145.565 1807.14 143.481 Q1805.24 141.398 1802.1 141.398 Q1798.53 141.398 1796.38 143.412 Q1794.25 145.426 1793.92 149.083 L1809.11 149.06 Z" fill="#000000" fill-rule="nonzero" fill-opacity="1" /><path clip-path="url(#clip310)" d="M1832.14 151.305 Q1826.98 151.305 1824.99 152.486 Q1823 153.666 1823 156.514 Q1823 158.782 1824.48 160.125 Q1825.98 161.444 1828.55 161.444 Q1832.1 161.444 1834.22 158.944 Q1836.38 156.421 1836.38 152.254 L1836.38 151.305 L1832.14 151.305 M1840.64 149.546 L1840.64 164.338 L1836.38 164.338 L1836.38 160.402 Q1834.92 162.763 1832.74 163.898 Q1830.57 165.009 1827.42 165.009 Q1823.44 165.009 1821.08 162.787 Q1818.74 160.541 1818.74 156.791 Q1818.74 152.416 1821.66 150.194 Q1824.6 147.972 1830.41 147.972 L1836.38 147.972 L1836.38 147.555 Q1836.38 144.615 1834.43 143.018 Q1832.51 141.398 1829.02 141.398 Q1826.79 141.398 1824.69 141.93 Q1822.58 142.463 1820.64 143.527 L1820.64 139.592 Q1822.97 138.69 1825.17 138.25 Q1827.37 137.787 1829.46 137.787 Q1835.08 137.787 1837.86 140.703 Q1840.64 143.62 1840.64 149.546 Z" fill="#000000" fill-rule="nonzero" fill-opacity="1" /><path clip-path="url(#clip310)" d="M1849.41 128.319 L1853.67 128.319 L1853.67 164.338 L1849.41 164.338 L1849.41 128.319 Z" fill="#000000" fill-rule="nonzero" fill-opacity="1" /><path clip-path="url(#clip310)" d="M1894.71 142.347 L1894.71 128.319 L1898.97 128.319 L1898.97 164.338 L1894.71 164.338 L1894.71 160.449 Q1893.37 162.763 1891.31 163.898 Q1889.27 165.009 1886.4 165.009 Q1881.7 165.009 1878.74 161.259 Q1875.8 157.509 1875.8 151.398 Q1875.8 145.287 1878.74 141.537 Q1881.7 137.787 1886.4 137.787 Q1889.27 137.787 1891.31 138.921 Q1893.37 140.032 1894.71 142.347 M1880.2 151.398 Q1880.2 156.097 1882.12 158.782 Q1884.06 161.444 1887.44 161.444 Q1890.82 161.444 1892.77 158.782 Q1894.71 156.097 1894.71 151.398 Q1894.71 146.699 1892.77 144.037 Q1890.82 141.352 1887.44 141.352 Q1884.06 141.352 1882.12 144.037 Q1880.2 146.699 1880.2 151.398 Z" fill="#000000" fill-rule="nonzero" fill-opacity="1" /><path clip-path="url(#clip310)" d="M1907.74 138.412 L1912 138.412 L1912 164.338 L1907.74 164.338 L1907.74 138.412 M1907.74 128.319 L1912 128.319 L1912 133.713 L1907.74 133.713 L1907.74 128.319 Z" fill="#000000" fill-rule="nonzero" fill-opacity="1" /><path clip-path="url(#clip310)" d="M1937.44 139.176 L1937.44 143.203 Q1935.64 142.277 1933.69 141.815 Q1931.75 141.352 1929.66 141.352 Q1926.49 141.352 1924.9 142.324 Q1923.32 143.296 1923.32 145.24 Q1923.32 146.722 1924.46 147.578 Q1925.59 148.412 1929.02 149.176 L1930.47 149.5 Q1935.01 150.472 1936.91 152.254 Q1938.83 154.014 1938.83 157.185 Q1938.83 160.796 1935.96 162.902 Q1933.11 165.009 1928.11 165.009 Q1926.03 165.009 1923.76 164.592 Q1921.52 164.199 1919.02 163.388 L1919.02 158.99 Q1921.38 160.217 1923.67 160.842 Q1925.96 161.444 1928.21 161.444 Q1931.21 161.444 1932.84 160.426 Q1934.46 159.384 1934.46 157.509 Q1934.46 155.773 1933.28 154.847 Q1932.12 153.921 1928.16 153.064 L1926.68 152.717 Q1922.72 151.884 1920.96 150.171 Q1919.2 148.435 1919.2 145.426 Q1919.2 141.768 1921.79 139.778 Q1924.39 137.787 1929.15 137.787 Q1931.52 137.787 1933.6 138.134 Q1935.68 138.481 1937.44 139.176 Z" fill="#000000" fill-rule="nonzero" fill-opacity="1" /><path clip-path="url(#clip310)" d="M1949.83 131.051 L1949.83 138.412 L1958.6 138.412 L1958.6 141.722 L1949.83 141.722 L1949.83 155.796 Q1949.83 158.967 1950.68 159.87 Q1951.56 160.773 1954.22 160.773 L1958.6 160.773 L1958.6 164.338 L1954.22 164.338 Q1949.29 164.338 1947.42 162.509 Q1945.54 160.657 1945.54 155.796 L1945.54 141.722 L1942.42 141.722 L1942.42 138.412 L1945.54 138.412 L1945.54 131.051 L1949.83 131.051 Z" fill="#000000" fill-rule="nonzero" fill-opacity="1" /><path clip-path="url(#clip310)" d="M1979.22 142.393 Q1978.51 141.977 1977.65 141.791 Q1976.82 141.583 1975.8 141.583 Q1972.19 141.583 1970.24 143.944 Q1968.32 146.282 1968.32 150.68 L1968.32 164.338 L1964.04 164.338 L1964.04 138.412 L1968.32 138.412 L1968.32 142.44 Q1969.66 140.078 1971.82 138.944 Q1973.97 137.787 1977.05 137.787 Q1977.49 137.787 1978.02 137.856 Q1978.55 137.903 1979.2 138.018 L1979.22 142.393 Z" fill="#000000" fill-rule="nonzero" fill-opacity="1" /><path clip-path="url(#clip310)" d="M1983.69 138.412 L1987.95 138.412 L1987.95 164.338 L1983.69 164.338 L1983.69 138.412 M1983.69 128.319 L1987.95 128.319 L1987.95 133.713 L1983.69 133.713 L1983.69 128.319 Z" fill="#000000" fill-rule="nonzero" fill-opacity="1" /><path clip-path="url(#clip310)" d="M2015.47 151.398 Q2015.47 146.699 2013.53 144.037 Q2011.61 141.352 2008.23 141.352 Q2004.85 141.352 2002.9 144.037 Q2000.98 146.699 2000.98 151.398 Q2000.98 156.097 2002.9 158.782 Q2004.85 161.444 2008.23 161.444 Q2011.61 161.444 2013.53 158.782 Q2015.47 156.097 2015.47 151.398 M2000.98 142.347 Q2002.33 140.032 2004.36 138.921 Q2006.42 137.787 2009.27 137.787 Q2013.99 137.787 2016.93 141.537 Q2019.9 145.287 2019.9 151.398 Q2019.9 157.509 2016.93 161.259 Q2013.99 165.009 2009.27 165.009 Q2006.42 165.009 2004.36 163.898 Q2002.33 162.763 2000.98 160.449 L2000.98 164.338 L1996.7 164.338 L1996.7 128.319 L2000.98 128.319 L2000.98 142.347 Z" fill="#000000" fill-rule="nonzero" fill-opacity="1" /><path clip-path="url(#clip310)" d="M2026.52 154.106 L2026.52 138.412 L2030.77 138.412 L2030.77 153.944 Q2030.77 157.625 2032.21 159.476 Q2033.64 161.305 2036.52 161.305 Q2039.96 161.305 2041.96 159.106 Q2043.97 156.907 2043.97 153.111 L2043.97 138.412 L2048.23 138.412 L2048.23 164.338 L2043.97 164.338 L2043.97 160.356 Q2042.42 162.717 2040.36 163.875 Q2038.32 165.009 2035.61 165.009 Q2031.14 165.009 2028.83 162.231 Q2026.52 159.453 2026.52 154.106 M2037.23 137.787 L2037.23 137.787 Z" fill="#000000" fill-rule="nonzero" fill-opacity="1" /><path clip-path="url(#clip310)" d="M2061.21 131.051 L2061.21 138.412 L2069.99 138.412 L2069.99 141.722 L2061.21 141.722 L2061.21 155.796 Q2061.21 158.967 2062.07 159.87 Q2062.95 160.773 2065.61 160.773 L2069.99 160.773 L2069.99 164.338 L2065.61 164.338 Q2060.68 164.338 2058.81 162.509 Q2056.93 160.657 2056.93 155.796 L2056.93 141.722 L2053.81 141.722 L2053.81 138.412 L2056.93 138.412 L2056.93 131.051 L2061.21 131.051 Z" fill="#000000" fill-rule="nonzero" fill-opacity="1" /><path clip-path="url(#clip310)" d="M2075.59 138.412 L2079.85 138.412 L2079.85 164.338 L2075.59 164.338 L2075.59 138.412 M2075.59 128.319 L2079.85 128.319 L2079.85 133.713 L2075.59 133.713 L2075.59 128.319 Z" fill="#000000" fill-rule="nonzero" fill-opacity="1" /><path clip-path="url(#clip310)" d="M2098.81 141.398 Q2095.38 141.398 2093.39 144.083 Q2091.4 146.745 2091.4 151.398 Q2091.4 156.051 2093.37 158.736 Q2095.36 161.398 2098.81 161.398 Q2102.21 161.398 2104.2 158.713 Q2106.19 156.027 2106.19 151.398 Q2106.19 146.791 2104.2 144.106 Q2102.21 141.398 2098.81 141.398 M2098.81 137.787 Q2104.36 137.787 2107.53 141.398 Q2110.7 145.009 2110.7 151.398 Q2110.7 157.764 2107.53 161.398 Q2104.36 165.009 2098.81 165.009 Q2093.23 165.009 2090.06 161.398 Q2086.91 157.764 2086.91 151.398 Q2086.91 145.009 2090.06 141.398 Q2093.23 137.787 2098.81 137.787 Z" fill="#000000" fill-rule="nonzero" fill-opacity="1" /><path clip-path="url(#clip310)" d="M2139.32 148.689 L2139.32 164.338 L2135.06 164.338 L2135.06 148.828 Q2135.06 145.148 2133.62 143.319 Q2132.19 141.49 2129.32 141.49 Q2125.87 141.49 2123.88 143.69 Q2121.89 145.889 2121.89 149.685 L2121.89 164.338 L2117.6 164.338 L2117.6 138.412 L2121.89 138.412 L2121.89 142.44 Q2123.41 140.102 2125.47 138.944 Q2127.56 137.787 2130.26 137.787 Q2134.73 137.787 2137.02 140.565 Q2139.32 143.319 2139.32 148.689 Z" fill="#000000" fill-rule="nonzero" fill-opacity="1" /><path clip-path="url(#clip310)" d="M1604.08 219.634 L1748.51 219.634 L1748.51 178.162 L1604.08 178.162 L1604.08 219.634  Z" fill="#e26f46" fill-rule="evenodd" fill-opacity="0.2"/>
<polyline clip-path="url(#clip310)" style="stroke:#e26f46; stroke-linecap:round; stroke-linejoin:round; stroke-width:4; stroke-opacity:1; fill:none" points="1604.08,178.162 1748.51,178.162 "/>
<path clip-path="url(#clip310)" d="M1796.61 202.15 L1796.61 204.233 L1777.03 204.233 Q1777.3 208.631 1779.66 210.946 Q1782.05 213.238 1786.29 213.238 Q1788.74 213.238 1791.03 212.636 Q1793.35 212.034 1795.61 210.83 L1795.61 214.858 Q1793.32 215.83 1790.91 216.34 Q1788.51 216.849 1786.03 216.849 Q1779.83 216.849 1776.19 213.238 Q1772.58 209.627 1772.58 203.469 Q1772.58 197.104 1776.01 193.377 Q1779.46 189.627 1785.29 189.627 Q1790.52 189.627 1793.55 193.006 Q1796.61 196.363 1796.61 202.15 M1792.35 200.9 Q1792.3 197.405 1790.38 195.321 Q1788.48 193.238 1785.34 193.238 Q1781.77 193.238 1779.62 195.252 Q1777.49 197.266 1777.16 200.923 L1792.35 200.9 Z" fill="#000000" fill-rule="nonzero" fill-opacity="1" /><path clip-path="url(#clip310)" d="M1820.13 191.016 L1820.13 195.043 Q1818.32 194.117 1816.38 193.655 Q1814.43 193.192 1812.35 193.192 Q1809.18 193.192 1807.58 194.164 Q1806.01 195.136 1806.01 197.08 Q1806.01 198.562 1807.14 199.418 Q1808.28 200.252 1811.7 201.016 L1813.16 201.34 Q1817.7 202.312 1819.6 204.094 Q1821.52 205.854 1821.52 209.025 Q1821.52 212.636 1818.65 214.742 Q1815.8 216.849 1810.8 216.849 Q1808.72 216.849 1806.45 216.432 Q1804.2 216.039 1801.7 215.228 L1801.7 210.83 Q1804.06 212.057 1806.35 212.682 Q1808.65 213.284 1810.89 213.284 Q1813.9 213.284 1815.52 212.266 Q1817.14 211.224 1817.14 209.349 Q1817.14 207.613 1815.96 206.687 Q1814.8 205.761 1810.85 204.904 L1809.36 204.557 Q1805.41 203.724 1803.65 202.011 Q1801.89 200.275 1801.89 197.266 Q1801.89 193.608 1804.48 191.618 Q1807.07 189.627 1811.84 189.627 Q1814.2 189.627 1816.28 189.974 Q1818.37 190.321 1820.13 191.016 Z" fill="#000000" fill-rule="nonzero" fill-opacity="1" /><path clip-path="url(#clip310)" d="M1832.51 182.891 L1832.51 190.252 L1841.28 190.252 L1841.28 193.562 L1832.51 193.562 L1832.51 207.636 Q1832.51 210.807 1833.37 211.71 Q1834.25 212.613 1836.91 212.613 L1841.28 212.613 L1841.28 216.178 L1836.91 216.178 Q1831.98 216.178 1830.1 214.349 Q1828.23 212.497 1828.23 207.636 L1828.23 193.562 L1825.1 193.562 L1825.1 190.252 L1828.23 190.252 L1828.23 182.891 L1832.51 182.891 Z" fill="#000000" fill-rule="nonzero" fill-opacity="1" /><path clip-path="url(#clip310)" d="M1846.89 190.252 L1851.15 190.252 L1851.15 216.178 L1846.89 216.178 L1846.89 190.252 M1846.89 180.159 L1851.15 180.159 L1851.15 185.553 L1846.89 185.553 L1846.89 180.159 Z" fill="#000000" fill-rule="nonzero" fill-opacity="1" /><path clip-path="url(#clip310)" d="M1880.24 195.229 Q1881.84 192.358 1884.06 190.993 Q1886.28 189.627 1889.29 189.627 Q1893.34 189.627 1895.54 192.474 Q1897.74 195.298 1897.74 200.529 L1897.74 216.178 L1893.46 216.178 L1893.46 200.668 Q1893.46 196.942 1892.14 195.136 Q1890.82 193.33 1888.11 193.33 Q1884.8 193.33 1882.88 195.53 Q1880.96 197.729 1880.96 201.525 L1880.96 216.178 L1876.68 216.178 L1876.68 200.668 Q1876.68 196.918 1875.36 195.136 Q1874.04 193.33 1871.28 193.33 Q1868.02 193.33 1866.1 195.553 Q1864.18 197.752 1864.18 201.525 L1864.18 216.178 L1859.9 216.178 L1859.9 190.252 L1864.18 190.252 L1864.18 194.28 Q1865.64 191.895 1867.67 190.761 Q1869.71 189.627 1872.51 189.627 Q1875.34 189.627 1877.3 191.062 Q1879.29 192.497 1880.24 195.229 Z" fill="#000000" fill-rule="nonzero" fill-opacity="1" /><path clip-path="url(#clip310)" d="M1918.02 203.145 Q1912.86 203.145 1910.87 204.326 Q1908.88 205.506 1908.88 208.354 Q1908.88 210.622 1910.36 211.965 Q1911.86 213.284 1914.43 213.284 Q1917.97 213.284 1920.1 210.784 Q1922.26 208.261 1922.26 204.094 L1922.26 203.145 L1918.02 203.145 M1926.52 201.386 L1926.52 216.178 L1922.26 216.178 L1922.26 212.242 Q1920.8 214.603 1918.62 215.738 Q1916.45 216.849 1913.3 216.849 Q1909.32 216.849 1906.96 214.627 Q1904.62 212.381 1904.62 208.631 Q1904.62 204.256 1907.53 202.034 Q1910.47 199.812 1916.28 199.812 L1922.26 199.812 L1922.26 199.395 Q1922.26 196.455 1920.31 194.858 Q1918.39 193.238 1914.9 193.238 Q1912.67 193.238 1910.57 193.77 Q1908.46 194.303 1906.52 195.367 L1906.52 191.432 Q1908.85 190.53 1911.05 190.09 Q1913.25 189.627 1915.34 189.627 Q1920.96 189.627 1923.74 192.543 Q1926.52 195.46 1926.52 201.386 Z" fill="#000000" fill-rule="nonzero" fill-opacity="1" /><path clip-path="url(#clip310)" d="M1939.5 182.891 L1939.5 190.252 L1948.28 190.252 L1948.28 193.562 L1939.5 193.562 L1939.5 207.636 Q1939.5 210.807 1940.36 211.71 Q1941.24 212.613 1943.9 212.613 L1948.28 212.613 L1948.28 216.178 L1943.9 216.178 Q1938.97 216.178 1937.09 214.349 Q1935.22 212.497 1935.22 207.636 L1935.22 193.562 L1932.09 193.562 L1932.09 190.252 L1935.22 190.252 L1935.22 182.891 L1939.5 182.891 Z" fill="#000000" fill-rule="nonzero" fill-opacity="1" /><path clip-path="url(#clip310)" d="M1976.05 202.15 L1976.05 204.233 L1956.47 204.233 Q1956.75 208.631 1959.11 210.946 Q1961.49 213.238 1965.73 213.238 Q1968.18 213.238 1970.47 212.636 Q1972.79 212.034 1975.06 210.83 L1975.06 214.858 Q1972.77 215.83 1970.36 216.34 Q1967.95 216.849 1965.47 216.849 Q1959.27 216.849 1955.64 213.238 Q1952.03 209.627 1952.03 203.469 Q1952.03 197.104 1955.45 193.377 Q1958.9 189.627 1964.73 189.627 Q1969.96 189.627 1973 193.006 Q1976.05 196.363 1976.05 202.15 M1971.79 200.9 Q1971.75 197.405 1969.83 195.321 Q1967.93 193.238 1964.78 193.238 Q1961.21 193.238 1959.06 195.252 Q1956.93 197.266 1956.61 200.923 L1971.79 200.9 Z" fill="#000000" fill-rule="nonzero" fill-opacity="1" /><path clip-path="url(#clip310)" d="M2000.1 194.187 L2000.1 180.159 L2004.36 180.159 L2004.36 216.178 L2000.1 216.178 L2000.1 212.289 Q1998.76 214.603 1996.7 215.738 Q1994.66 216.849 1991.79 216.849 Q1987.09 216.849 1984.13 213.099 Q1981.19 209.349 1981.19 203.238 Q1981.19 197.127 1984.13 193.377 Q1987.09 189.627 1991.79 189.627 Q1994.66 189.627 1996.7 190.761 Q1998.76 191.872 2000.1 194.187 M1985.59 203.238 Q1985.59 207.937 1987.51 210.622 Q1989.46 213.284 1992.83 213.284 Q1996.21 213.284 1998.16 210.622 Q2000.1 207.937 2000.1 203.238 Q2000.1 198.539 1998.16 195.877 Q1996.21 193.192 1992.83 193.192 Q1989.46 193.192 1987.51 195.877 Q1985.59 198.539 1985.59 203.238 Z" fill="#000000" fill-rule="nonzero" fill-opacity="1" /><path clip-path="url(#clip310)" d="M2032.33 212.289 L2032.33 226.039 L2028.04 226.039 L2028.04 190.252 L2032.33 190.252 L2032.33 194.187 Q2033.67 191.872 2035.71 190.761 Q2037.77 189.627 2040.61 189.627 Q2045.33 189.627 2048.27 193.377 Q2051.24 197.127 2051.24 203.238 Q2051.24 209.349 2048.27 213.099 Q2045.33 216.849 2040.61 216.849 Q2037.77 216.849 2035.71 215.738 Q2033.67 214.603 2032.33 212.289 M2046.82 203.238 Q2046.82 198.539 2044.87 195.877 Q2042.95 193.192 2039.57 193.192 Q2036.19 193.192 2034.25 195.877 Q2032.33 198.539 2032.33 203.238 Q2032.33 207.937 2034.25 210.622 Q2036.19 213.284 2039.57 213.284 Q2042.95 213.284 2044.87 210.622 Q2046.82 207.937 2046.82 203.238 Z" fill="#000000" fill-rule="nonzero" fill-opacity="1" /><path clip-path="url(#clip310)" d="M2073.32 194.233 Q2072.6 193.817 2071.75 193.631 Q2070.91 193.423 2069.89 193.423 Q2066.28 193.423 2064.34 195.784 Q2062.42 198.122 2062.42 202.52 L2062.42 216.178 L2058.14 216.178 L2058.14 190.252 L2062.42 190.252 L2062.42 194.28 Q2063.76 191.918 2065.91 190.784 Q2068.07 189.627 2071.14 189.627 Q2071.58 189.627 2072.12 189.696 Q2072.65 189.743 2073.3 189.858 L2073.32 194.233 Z" fill="#000000" fill-rule="nonzero" fill-opacity="1" /><path clip-path="url(#clip310)" d="M2086.79 193.238 Q2083.37 193.238 2081.38 195.923 Q2079.39 198.585 2079.39 203.238 Q2079.39 207.891 2081.35 210.576 Q2083.34 213.238 2086.79 213.238 Q2090.2 213.238 2092.19 210.553 Q2094.18 207.867 2094.18 203.238 Q2094.18 198.631 2092.19 195.946 Q2090.2 193.238 2086.79 193.238 M2086.79 189.627 Q2092.35 189.627 2095.52 193.238 Q2098.69 196.849 2098.69 203.238 Q2098.69 209.604 2095.52 213.238 Q2092.35 216.849 2086.79 216.849 Q2081.21 216.849 2078.04 213.238 Q2074.89 209.604 2074.89 203.238 Q2074.89 196.849 2078.04 193.238 Q2081.21 189.627 2086.79 189.627 Z" fill="#000000" fill-rule="nonzero" fill-opacity="1" /><path clip-path="url(#clip310)" d="M2105.75 190.252 L2110.01 190.252 L2110.01 216.641 Q2110.01 221.594 2108.11 223.816 Q2106.24 226.039 2102.05 226.039 L2100.43 226.039 L2100.43 222.428 L2101.56 222.428 Q2103.99 222.428 2104.87 221.293 Q2105.75 220.182 2105.75 216.641 L2105.75 190.252 M2105.75 180.159 L2110.01 180.159 L2110.01 185.553 L2105.75 185.553 L2105.75 180.159 Z" fill="#000000" fill-rule="nonzero" fill-opacity="1" /><path clip-path="url(#clip310)" d="M2141.1 202.15 L2141.1 204.233 L2121.51 204.233 Q2121.79 208.631 2124.15 210.946 Q2126.54 213.238 2130.77 213.238 Q2133.23 213.238 2135.52 212.636 Q2137.83 212.034 2140.1 210.83 L2140.1 214.858 Q2137.81 215.83 2135.4 216.34 Q2133 216.849 2130.52 216.849 Q2124.32 216.849 2120.68 213.238 Q2117.07 209.627 2117.07 203.469 Q2117.07 197.104 2120.5 193.377 Q2123.95 189.627 2129.78 189.627 Q2135.01 189.627 2138.04 193.006 Q2141.1 196.363 2141.1 202.15 M2136.84 200.9 Q2136.79 197.405 2134.87 195.321 Q2132.97 193.238 2129.82 193.238 Q2126.26 193.238 2124.11 195.252 Q2121.98 197.266 2121.65 200.923 L2136.84 200.9 Z" fill="#000000" fill-rule="nonzero" fill-opacity="1" /><path clip-path="url(#clip310)" d="M2166.75 191.247 L2166.75 195.229 Q2164.94 194.233 2163.11 193.747 Q2161.31 193.238 2159.45 193.238 Q2155.31 193.238 2153.02 195.877 Q2150.73 198.492 2150.73 203.238 Q2150.73 207.983 2153.02 210.622 Q2155.31 213.238 2159.45 213.238 Q2161.31 213.238 2163.11 212.752 Q2164.94 212.242 2166.75 211.247 L2166.75 215.182 Q2164.96 216.016 2163.04 216.432 Q2161.14 216.849 2158.99 216.849 Q2153.14 216.849 2149.69 213.168 Q2146.24 209.488 2146.24 203.238 Q2146.24 196.895 2149.71 193.261 Q2153.2 189.627 2159.27 189.627 Q2161.24 189.627 2163.11 190.043 Q2164.99 190.437 2166.75 191.247 Z" fill="#000000" fill-rule="nonzero" fill-opacity="1" /><path clip-path="url(#clip310)" d="M2178.37 182.891 L2178.37 190.252 L2187.14 190.252 L2187.14 193.562 L2178.37 193.562 L2178.37 207.636 Q2178.37 210.807 2179.22 211.71 Q2180.1 212.613 2182.76 212.613 L2187.14 212.613 L2187.14 216.178 L2182.76 216.178 Q2177.83 216.178 2175.96 214.349 Q2174.08 212.497 2174.08 207.636 L2174.08 193.562 L2170.96 193.562 L2170.96 190.252 L2174.08 190.252 L2174.08 182.891 L2178.37 182.891 Z" fill="#000000" fill-rule="nonzero" fill-opacity="1" /><path clip-path="url(#clip310)" d="M2192.74 190.252 L2197 190.252 L2197 216.178 L2192.74 216.178 L2192.74 190.252 M2192.74 180.159 L2197 180.159 L2197 185.553 L2192.74 185.553 L2192.74 180.159 Z" fill="#000000" fill-rule="nonzero" fill-opacity="1" /><path clip-path="url(#clip310)" d="M2215.96 193.238 Q2212.53 193.238 2210.54 195.923 Q2208.55 198.585 2208.55 203.238 Q2208.55 207.891 2210.52 210.576 Q2212.51 213.238 2215.96 213.238 Q2219.36 213.238 2221.35 210.553 Q2223.34 207.867 2223.34 203.238 Q2223.34 198.631 2221.35 195.946 Q2219.36 193.238 2215.96 193.238 M2215.96 189.627 Q2221.51 189.627 2224.69 193.238 Q2227.86 196.849 2227.86 203.238 Q2227.86 209.604 2224.69 213.238 Q2221.51 216.849 2215.96 216.849 Q2210.38 216.849 2207.21 213.238 Q2204.06 209.604 2204.06 203.238 Q2204.06 196.849 2207.21 193.238 Q2210.38 189.627 2215.96 189.627 Z" fill="#000000" fill-rule="nonzero" fill-opacity="1" /><path clip-path="url(#clip310)" d="M2256.47 200.529 L2256.47 216.178 L2252.21 216.178 L2252.21 200.668 Q2252.21 196.988 2250.77 195.159 Q2249.34 193.33 2246.47 193.33 Q2243.02 193.33 2241.03 195.53 Q2239.04 197.729 2239.04 201.525 L2239.04 216.178 L2234.75 216.178 L2234.75 190.252 L2239.04 190.252 L2239.04 194.28 Q2240.57 191.942 2242.63 190.784 Q2244.71 189.627 2247.42 189.627 Q2251.88 189.627 2254.18 192.405 Q2256.47 195.159 2256.47 200.529 Z" fill="#000000" fill-rule="nonzero" fill-opacity="1" /></svg>
